<svg xmlns="http://www.w3.org/2000/svg" viewBox="0 0 229.8 240">
  <defs>
    <style>
      .cls-1 {
        fill: #b3b3b3;
      }

      .cls-2, .cls-8 {
        fill: #c00;
      }

      .cls-3 {
        fill: #eaeaea;
      }

      .cls-4, .cls-7 {
        fill: #d1d1d1;
      }

      .cls-5, .cls-6 {
        fill: none;
        stroke-miterlimit: 10;
      }

      .cls-5 {
        stroke: #d1d1d1;
      }

      .cls-6 {
        stroke: #7b7b7b;
        stroke-linecap: round;
      }

      .cls-7, .cls-8 {
        font-size: 14px;
        font-family: ProximaNova-Bold, Proxima Nova;
        font-weight: 700;
      }
    </style>
  </defs>
  <g id="Group_38" data-name="Group 38" transform="translate(-390 -370)">
    <circle id="marker_circle_8x8" data-name="marker circle 8x8" class="cls-1" cx="4" cy="4" r="4" transform="translate(425.7 594)"/>
    <circle id="marker_circle_8x8-2" data-name="marker circle 8x8" class="cls-2" cx="4" cy="4" r="4" transform="translate(611.8 464.7)"/>
    <g id="timeline" transform="translate(379.5 373.4)">
      <path id="Path_1" data-name="Path 1" class="cls-2" d="M120.5,32.6h0a.945.945,0,0,1-1-1v-18a.945.945,0,0,1,1-1h0a.945.945,0,0,1,1,1v18A1,1,0,0,1,120.5,32.6Z"/>
      <g id="Group_1" data-name="Group 1">
        <path id="Path_2" data-name="Path 2" class="cls-1" d="M116.2,28.7h0a.945.945,0,0,1-1-1l-.4-10a.945.945,0,0,1,1-1h0a.945.945,0,0,1,1,1l.4,10A1,1,0,0,1,116.2,28.7Z"/>
        <path id="Path_3" data-name="Path 3" class="cls-1" d="M112,29h0a1.088,1.088,0,0,1-1.1-.9l-.9-10a1.088,1.088,0,0,1,.9-1.1h0a1.088,1.088,0,0,1,1.1.9l.9,10A1.172,1.172,0,0,1,112,29Z"/>
        <path id="Path_4" data-name="Path 4" class="cls-1" d="M107.7,29.4h0a.993.993,0,0,1-1.1-.9l-1.3-9.9a.993.993,0,0,1,.9-1.1h0a.993.993,0,0,1,1.1.9l1.3,9.9C108.6,28.9,108.3,29.4,107.7,29.4Z"/>
        <path id="Path_5" data-name="Path 5" class="cls-1" d="M103.5,30.1h0a1.1,1.1,0,0,1-1.2-.8l-1.7-9.8a1.1,1.1,0,0,1,.8-1.2h0a1.1,1.1,0,0,1,1.2.8l1.7,9.8A1.037,1.037,0,0,1,103.5,30.1Z"/>
        <path id="Path_6" data-name="Path 6" class="cls-1" d="M99.3,30.9h0a1.012,1.012,0,0,1-1.2-.8l-2.2-9.8a1.012,1.012,0,0,1,.8-1.2h0a1.012,1.012,0,0,1,1.2.8l2.2,9.8A1.037,1.037,0,0,1,99.3,30.9Z"/>
        <path id="Path_7" data-name="Path 7" class="cls-1" d="M95.1,31.9h0a1.028,1.028,0,0,1-1.2-.7l-2.6-9.7a1.028,1.028,0,0,1,.7-1.2h0a1.028,1.028,0,0,1,1.2.7l2.6,9.7A.888.888,0,0,1,95.1,31.9Z"/>
        <path id="Path_8" data-name="Path 8" class="cls-1" d="M91,33.1h0a1.015,1.015,0,0,1-1.3-.7l-3-9.5a1.015,1.015,0,0,1,.7-1.3h0a1.015,1.015,0,0,1,1.3.7l3,9.5C91.8,32.4,91.6,33,91,33.1Z"/>
        <path id="Path_9" data-name="Path 9" class="cls-1" d="M87,34.5h0a1.04,1.04,0,0,1-1.3-.6l-3.4-9.4a1.04,1.04,0,0,1,.6-1.3h0a1.04,1.04,0,0,1,1.3.6l3.4,9.4A1.04,1.04,0,0,1,87,34.5Z"/>
        <path id="Path_10" data-name="Path 10" class="cls-1" d="M83,36.1h0a.992.992,0,0,1-1.3-.5l-3.8-9.2a.992.992,0,0,1,.5-1.3h0a.992.992,0,0,1,1.3.5l3.8,9.2A1.027,1.027,0,0,1,83,36.1Z"/>
        <path id="Path_11" data-name="Path 11" class="cls-1" d="M79.1,37.8h0a.992.992,0,0,1-1.3-.5l-4.2-9.1a.992.992,0,0,1,.5-1.3h0a.992.992,0,0,1,1.3.5l4.2,9.1A1.062,1.062,0,0,1,79.1,37.8Z"/>
        <path id="Path_12" data-name="Path 12" class="cls-1" d="M75.2,39.7h0a.883.883,0,0,1-1.3-.4l-4.6-8.9a.883.883,0,0,1,.4-1.3h0a.883.883,0,0,1,1.3.4l4.6,8.9A.922.922,0,0,1,75.2,39.7Z"/>
        <path id="Path_13" data-name="Path 13" class="cls-1" d="M71.5,41.7h0a1.012,1.012,0,0,1-1.4-.4l-5-8.7a1.012,1.012,0,0,1,.4-1.4h0a1.012,1.012,0,0,1,1.4.4l5,8.7A1.107,1.107,0,0,1,71.5,41.7Z"/>
        <path id="Path_14" data-name="Path 14" class="cls-1" d="M67.8,43.9h0a.984.984,0,0,1-1.4-.3L61,35.2a.984.984,0,0,1,.3-1.4h0a.984.984,0,0,1,1.4.3l5.4,8.4A.984.984,0,0,1,67.8,43.9Z"/>
        <path id="Path_15" data-name="Path 15" class="cls-1" d="M64.3,46.3h0a1.058,1.058,0,0,1-1.4-.2l-5.7-8.2a1.058,1.058,0,0,1,.2-1.4h0a1.058,1.058,0,0,1,1.4.2l5.7,8.2A.965.965,0,0,1,64.3,46.3Z"/>
        <path id="Path_16" data-name="Path 16" class="cls-1" d="M60.8,48.8h0a.978.978,0,0,1-1.4-.2l-6.1-7.9a.978.978,0,0,1,.2-1.4h0a.978.978,0,0,1,1.4.2L61,47.4A.9.9,0,0,1,60.8,48.8Z"/>
        <path id="Path_17" data-name="Path 17" class="cls-1" d="M57.5,51.5h0a.966.966,0,0,1-1.4-.1l-6.4-7.7a.966.966,0,0,1,.1-1.4h0a.966.966,0,0,1,1.4.1l6.4,7.7A.966.966,0,0,1,57.5,51.5Z"/>
        <path id="Path_18" data-name="Path 18" class="cls-1" d="M54.3,54.3h0a.972.972,0,0,1-1.4-.1l-6.8-7.4a.972.972,0,0,1,.1-1.4h0a.972.972,0,0,1,1.4.1l6.8,7.4A1.063,1.063,0,0,1,54.3,54.3Z"/>
        <path id="Path_19" data-name="Path 19" class="cls-1" d="M51.2,57.3h0a.967.967,0,0,1-1.4,0l-7.1-7.1a.967.967,0,0,1,0-1.4h0a.967.967,0,0,1,1.4,0l7.1,7.1A.967.967,0,0,1,51.2,57.3Z"/>
        <path id="Path_20" data-name="Path 20" class="cls-1" d="M48.2,60.4h0a1.071,1.071,0,0,1-1.4.1l-7.4-6.8a1.071,1.071,0,0,1-.1-1.4h0a1.071,1.071,0,0,1,1.4-.1L48.1,59A.9.9,0,0,1,48.2,60.4Z"/>
        <path id="Path_21" data-name="Path 21" class="cls-1" d="M45.4,63.6h0a.972.972,0,0,1-1.4.1l-7.7-6.4a.972.972,0,0,1-.1-1.4h0a.972.972,0,0,1,1.4-.1l7.7,6.4A.966.966,0,0,1,45.4,63.6Z"/>
        <path id="Path_22" data-name="Path 22" class="cls-1" d="M42.8,66.9h0a1.075,1.075,0,0,1-1.4.2l-8-6.1a1.075,1.075,0,0,1-.2-1.4h0a1.075,1.075,0,0,1,1.4-.2l7.9,6.1A1.015,1.015,0,0,1,42.8,66.9Z"/>
        <path id="Path_23" data-name="Path 23" class="cls-1" d="M40.2,70.4h0a.9.9,0,0,1-1.4.2l-8.2-5.7a.9.9,0,0,1-.2-1.4h0a.9.9,0,0,1,1.4-.2L40,69A1.058,1.058,0,0,1,40.2,70.4Z"/>
        <path id="Path_24" data-name="Path 24" class="cls-1" d="M37.8,73.9h0a.984.984,0,0,1-1.4.3L28,68.9a.984.984,0,0,1-.3-1.4h0a.984.984,0,0,1,1.4-.3l8.4,5.4A.889.889,0,0,1,37.8,73.9Z"/>
        <path id="Path_25" data-name="Path 25" class="cls-1" d="M35.6,77.6h0a1.107,1.107,0,0,1-1.4.4l-8.7-5a1.107,1.107,0,0,1-.4-1.4h0a1.107,1.107,0,0,1,1.4-.4l8.7,5A1.012,1.012,0,0,1,35.6,77.6Z"/>
        <path id="Path_26" data-name="Path 26" class="cls-1" d="M33.6,81.3h0a.922.922,0,0,1-1.3.4l-8.9-4.6a.922.922,0,0,1-.4-1.3h0a.922.922,0,0,1,1.3-.4L33.2,80A1.094,1.094,0,0,1,33.6,81.3Z"/>
        <path id="Path_27" data-name="Path 27" class="cls-1" d="M31.7,85.2h0a.992.992,0,0,1-1.3.5l-9.1-4.2a.992.992,0,0,1-.5-1.3h0a.992.992,0,0,1,1.3-.5l9.1,4.2A.992.992,0,0,1,31.7,85.2Z"/>
        <path id="Path_28" data-name="Path 28" class="cls-1" d="M30,89.1h0a.917.917,0,0,1-1.3.5l-9.2-3.8a.917.917,0,0,1-.5-1.3h0a.917.917,0,0,1,1.3-.5l9.2,3.8A1.093,1.093,0,0,1,30,89.1Z"/>
        <path id="Path_29" data-name="Path 29" class="cls-1" d="M28.4,93.1h0a1.04,1.04,0,0,1-1.3.6l-9.4-3.4a1.04,1.04,0,0,1-.6-1.3h0a1.04,1.04,0,0,1,1.3-.6l9.4,3.4A1.04,1.04,0,0,1,28.4,93.1Z"/>
        <path id="Path_30" data-name="Path 30" class="cls-1" d="M27,97.1h0a1.146,1.146,0,0,1-1.3.7l-9.5-3a1.146,1.146,0,0,1-.7-1.3h0a1.146,1.146,0,0,1,1.3-.7l9.5,3A1.015,1.015,0,0,1,27,97.1Z"/>
        <path id="Path_31" data-name="Path 31" class="cls-1" d="M25.8,101.2h0a.949.949,0,0,1-1.2.7L15,99.3a.949.949,0,0,1-.7-1.2h0a.949.949,0,0,1,1.2-.7l9.7,2.6A.9.9,0,0,1,25.8,101.2Z"/>
        <path id="Path_32" data-name="Path 32" class="cls-1" d="M24.8,105.4h0a1.1,1.1,0,0,1-1.2.8L13.8,104a1.1,1.1,0,0,1-.8-1.2h0a1.1,1.1,0,0,1,1.2-.8l9.8,2.2A.967.967,0,0,1,24.8,105.4Z"/>
        <path id="Path_33" data-name="Path 33" class="cls-1" d="M24,109.6h0a1.037,1.037,0,0,1-1.2.8L13,108.7a1.037,1.037,0,0,1-.8-1.2h0a1.037,1.037,0,0,1,1.2-.8l9.8,1.7A1.037,1.037,0,0,1,24,109.6Z"/>
        <path id="Path_34" data-name="Path 34" class="cls-1" d="M23.3,113.8h0a1.172,1.172,0,0,1-1.1.9l-9.9-1.3a1.172,1.172,0,0,1-.9-1.1h0a1.172,1.172,0,0,1,1.1-.9l9.9,1.3A.993.993,0,0,1,23.3,113.8Z"/>
        <path id="Path_35" data-name="Path 35" class="cls-1" d="M22.9,118.1h0a.9.9,0,0,1-1.1.9l-10-.9a.9.9,0,0,1-.9-1.1h0a.9.9,0,0,1,1.1-.9l10,.9A1.018,1.018,0,0,1,22.9,118.1Z"/>
        <path id="Path_36" data-name="Path 36" class="cls-1" d="M22.6,122.3h0a1,1,0,0,1-1,1l-10-.4a1,1,0,0,1-1-1h0a1,1,0,0,1,1-1l10,.4A1,1,0,0,1,22.6,122.3Z"/>
        <path id="Path_37" data-name="Path 37" class="cls-1" d="M22.5,126.6h0a.945.945,0,0,1-1,1h-10a.945.945,0,0,1-1-1h0a.945.945,0,0,1,1-1h10A.945.945,0,0,1,22.5,126.6Z"/>
        <path id="Path_38" data-name="Path 38" class="cls-1" d="M22.6,130.9h0a.945.945,0,0,1-1,1l-10,.4a.945.945,0,0,1-1-1h0a.945.945,0,0,1,1-1l10-.4A1,1,0,0,1,22.6,130.9Z"/>
        <path id="Path_39" data-name="Path 39" class="cls-1" d="M22.9,135.1h0a1.088,1.088,0,0,1-.9,1.1l-10,.9a1.088,1.088,0,0,1-1.1-.9h0a1.088,1.088,0,0,1,.9-1.1l10-.9A1.172,1.172,0,0,1,22.9,135.1Z"/>
        <path id="Path_40" data-name="Path 40" class="cls-1" d="M23.3,139.4h0a.993.993,0,0,1-.9,1.1l-9.9,1.3a.993.993,0,0,1-1.1-.9h0a.993.993,0,0,1,.9-1.1l9.9-1.3C22.8,138.5,23.3,138.8,23.3,139.4Z"/>
        <path id="Path_41" data-name="Path 41" class="cls-1" d="M24,143.6h0a1.1,1.1,0,0,1-.8,1.2l-9.8,1.7a1.1,1.1,0,0,1-1.2-.8h0a1.1,1.1,0,0,1,.8-1.2l9.8-1.7A1.037,1.037,0,0,1,24,143.6Z"/>
        <path id="Path_42" data-name="Path 42" class="cls-1" d="M24.8,147.8h0A1.012,1.012,0,0,1,24,149l-9.8,2.2a1.012,1.012,0,0,1-1.2-.8h0a1.012,1.012,0,0,1,.8-1.2l9.8-2.2A1.037,1.037,0,0,1,24.8,147.8Z"/>
        <path id="Path_43" data-name="Path 43" class="cls-1" d="M25.8,152h0a1.028,1.028,0,0,1-.7,1.2l-9.7,2.6a1.028,1.028,0,0,1-1.2-.7h0a1.028,1.028,0,0,1,.7-1.2l9.7-2.6A.888.888,0,0,1,25.8,152Z"/>
        <path id="Path_44" data-name="Path 44" class="cls-1" d="M27,156.1h0a1.015,1.015,0,0,1-.7,1.3l-9.5,3a1.015,1.015,0,0,1-1.3-.7h0a1.015,1.015,0,0,1,.7-1.3l9.5-3A.948.948,0,0,1,27,156.1Z"/>
        <path id="Path_45" data-name="Path 45" class="cls-1" d="M28.4,160.1h0a1.04,1.04,0,0,1-.6,1.3l-9.4,3.4a1.04,1.04,0,0,1-1.3-.6h0a1.04,1.04,0,0,1,.6-1.3l9.4-3.4A1.04,1.04,0,0,1,28.4,160.1Z"/>
        <path id="Path_46" data-name="Path 46" class="cls-1" d="M30,164.1h0a.992.992,0,0,1-.5,1.3l-9.2,3.8a.992.992,0,0,1-1.3-.5h0a.992.992,0,0,1,.5-1.3l9.2-3.8C29.2,163.3,29.7,163.6,30,164.1Z"/>
        <path id="Path_47" data-name="Path 47" class="cls-1" d="M31.7,168h0a.992.992,0,0,1-.5,1.3l-9.1,4.2a.992.992,0,0,1-1.3-.5h0a.992.992,0,0,1,.5-1.3l9.1-4.2A1.027,1.027,0,0,1,31.7,168Z"/>
        <path id="Path_48" data-name="Path 48" class="cls-1" d="M33.6,171.8h0a.883.883,0,0,1-.4,1.3l-8.9,4.6a.883.883,0,0,1-1.3-.4h0a.883.883,0,0,1,.4-1.3l8.9-4.6A1.134,1.134,0,0,1,33.6,171.8Z"/>
        <path id="Path_49" data-name="Path 49" class="cls-1" d="M35.6,175.6h0a1.012,1.012,0,0,1-.4,1.4l-8.7,5a1.012,1.012,0,0,1-1.4-.4h0a1.012,1.012,0,0,1,.4-1.4l8.7-5A.989.989,0,0,1,35.6,175.6Z"/>
        <path id="Path_50" data-name="Path 50" class="cls-1" d="M37.8,179.2h0a.984.984,0,0,1-.3,1.4L29.1,186a.984.984,0,0,1-1.4-.3h0a.984.984,0,0,1,.3-1.4l8.4-5.4A1.051,1.051,0,0,1,37.8,179.2Z"/>
        <path id="Path_51" data-name="Path 51" class="cls-1" d="M40.2,182.8h0a1.058,1.058,0,0,1-.2,1.4l-8.2,5.7a1.058,1.058,0,0,1-1.4-.2h0a1.058,1.058,0,0,1,.2-1.4l8.2-5.7A.9.9,0,0,1,40.2,182.8Z"/>
        <path id="Path_52" data-name="Path 52" class="cls-1" d="M42.8,186.3h0a.978.978,0,0,1-.2,1.4l-7.9,6.1a.978.978,0,0,1-1.4-.2h0a.978.978,0,0,1,.2-1.4l7.9-6.1A.913.913,0,0,1,42.8,186.3Z"/>
        <path id="Path_53" data-name="Path 53" class="cls-1" d="M45.4,189.6h0a.966.966,0,0,1-.1,1.4l-7.7,6.4a.966.966,0,0,1-1.4-.1h0a.966.966,0,0,1,.1-1.4l7.7-6.4A.966.966,0,0,1,45.4,189.6Z"/>
        <path id="Path_54" data-name="Path 54" class="cls-1" d="M48.2,192.8h0a.972.972,0,0,1-.1,1.4L40.7,201a.972.972,0,0,1-1.4-.1h0a.972.972,0,0,1,.1-1.4l7.4-6.8A1.063,1.063,0,0,1,48.2,192.8Z"/>
        <path id="Path_55" data-name="Path 55" class="cls-1" d="M51.2,195.9h0a.967.967,0,0,1,0,1.4l-7.1,7.1a.967.967,0,0,1-1.4,0h0a.967.967,0,0,1,0-1.4l7.1-7.1A.967.967,0,0,1,51.2,195.9Z"/>
        <path id="Path_56" data-name="Path 56" class="cls-1" d="M54.3,198.8h0a1.071,1.071,0,0,1,.1,1.4l-6.8,7.4a1.071,1.071,0,0,1-1.4.1h0a1.071,1.071,0,0,1-.1-1.4l6.8-7.4A1.071,1.071,0,0,1,54.3,198.8Z"/>
        <path id="Path_57" data-name="Path 57" class="cls-1" d="M57.5,201.7h0a.972.972,0,0,1,.1,1.4l-6.4,7.7a.972.972,0,0,1-1.4.1h0a.972.972,0,0,1-.1-1.4l6.4-7.7A.972.972,0,0,1,57.5,201.7Z"/>
        <path id="Path_58" data-name="Path 58" class="cls-1" d="M60.8,204.3h0a1.075,1.075,0,0,1,.2,1.4l-6.1,7.9a1.075,1.075,0,0,1-1.4.2h0a1.075,1.075,0,0,1-.2-1.4l6.1-7.9A1.09,1.09,0,0,1,60.8,204.3Z"/>
        <path id="Path_59" data-name="Path 59" class="cls-1" d="M64.3,206.9h0a.9.9,0,0,1,.2,1.4l-5.7,8.2a.9.9,0,0,1-1.4.2h0a.9.9,0,0,1-.2-1.4l5.7-8.2A1.058,1.058,0,0,1,64.3,206.9Z"/>
        <path id="Path_60" data-name="Path 60" class="cls-1" d="M67.8,209.2h0a.984.984,0,0,1,.3,1.4L62.7,219a.984.984,0,0,1-1.4.3h0a.984.984,0,0,1-.3-1.4l5.4-8.4A1.122,1.122,0,0,1,67.8,209.2Z"/>
        <path id="Path_61" data-name="Path 61" class="cls-1" d="M71.5,211.5h0a1.107,1.107,0,0,1,.4,1.4l-5,8.7a1.107,1.107,0,0,1-1.4.4h0a1.107,1.107,0,0,1-.4-1.4l5-8.7A1.012,1.012,0,0,1,71.5,211.5Z"/>
        <path id="Path_62" data-name="Path 62" class="cls-1" d="M75.2,213.5h0a.922.922,0,0,1,.4,1.3L71,223.7a.922.922,0,0,1-1.3.4h0a.922.922,0,0,1-.4-1.3l4.6-8.9A1.134,1.134,0,0,1,75.2,213.5Z"/>
        <path id="Path_63" data-name="Path 63" class="cls-1" d="M79.1,215.4h0a.992.992,0,0,1,.5,1.3l-4.2,9.1a.992.992,0,0,1-1.3.5h0a.992.992,0,0,1-.5-1.3l4.2-9.1A.992.992,0,0,1,79.1,215.4Z"/>
        <path id="Path_64" data-name="Path 64" class="cls-1" d="M83,217.1h0a.917.917,0,0,1,.5,1.3l-3.8,9.2a.917.917,0,0,1-1.3.5h0a.917.917,0,0,1-.5-1.3l3.8-9.2A1.093,1.093,0,0,1,83,217.1Z"/>
        <path id="Path_65" data-name="Path 65" class="cls-1" d="M87,218.7h0a1.04,1.04,0,0,1,.6,1.3l-3.4,9.4a1.04,1.04,0,0,1-1.3.6h0a1.04,1.04,0,0,1-.6-1.3l3.4-9.4A1.04,1.04,0,0,1,87,218.7Z"/>
        <path id="Path_66" data-name="Path 66" class="cls-1" d="M91,220.1h0a1.146,1.146,0,0,1,.7,1.3l-3,9.5a1.146,1.146,0,0,1-1.3.7h0a1.146,1.146,0,0,1-.7-1.3l3-9.5A1.015,1.015,0,0,1,91,220.1Z"/>
        <path id="Path_67" data-name="Path 67" class="cls-1" d="M95.1,221.3h0a.949.949,0,0,1,.7,1.2l-2.6,9.7a.949.949,0,0,1-1.2.7h0a.949.949,0,0,1-.7-1.2l2.6-9.7A.919.919,0,0,1,95.1,221.3Z"/>
        <path id="Path_68" data-name="Path 68" class="cls-1" d="M99.3,222.3h0a1.1,1.1,0,0,1,.8,1.2l-2.2,9.8a1.1,1.1,0,0,1-1.2.8h0a1.1,1.1,0,0,1-.8-1.2l2.2-9.8A.912.912,0,0,1,99.3,222.3Z"/>
        <path id="Path_69" data-name="Path 69" class="cls-1" d="M103.5,223.1h0a1.037,1.037,0,0,1,.8,1.2l-1.7,9.8a1.037,1.037,0,0,1-1.2.8h0a1.037,1.037,0,0,1-.8-1.2l1.7-9.8A1.037,1.037,0,0,1,103.5,223.1Z"/>
        <path id="Path_70" data-name="Path 70" class="cls-1" d="M107.7,223.8h0a1.172,1.172,0,0,1,.9,1.1l-1.3,9.9a1.172,1.172,0,0,1-1.1.9h0a1.172,1.172,0,0,1-.9-1.1l1.3-9.9A.993.993,0,0,1,107.7,223.8Z"/>
        <path id="Path_71" data-name="Path 71" class="cls-1" d="M112,224.2h0a.9.9,0,0,1,.9,1.1l-.9,10a.9.9,0,0,1-1.1.9h0a.9.9,0,0,1-.9-1.1l.9-10A1.018,1.018,0,0,1,112,224.2Z"/>
        <path id="Path_72" data-name="Path 72" class="cls-1" d="M116.2,224.5h0a1,1,0,0,1,1,1l-.4,10a1,1,0,0,1-1,1h0a1,1,0,0,1-1-1l.4-10A1,1,0,0,1,116.2,224.5Z"/>
        <path id="Path_73" data-name="Path 73" class="cls-1" d="M120.5,224.6h0a.945.945,0,0,1,1,1v10a.945.945,0,0,1-1,1h0a.945.945,0,0,1-1-1v-10A.945.945,0,0,1,120.5,224.6Z"/>
        <path id="Path_74" data-name="Path 74" class="cls-1" d="M124.8,224.5h0a.945.945,0,0,1,1,1l.4,10a.945.945,0,0,1-1,1h0a.945.945,0,0,1-1-1l-.4-10A1,1,0,0,1,124.8,224.5Z"/>
        <path id="Path_75" data-name="Path 75" class="cls-1" d="M129,224.2h0a1.088,1.088,0,0,1,1.1.9l.9,10a1.088,1.088,0,0,1-.9,1.1h0a1.088,1.088,0,0,1-1.1-.9l-.9-10A1.172,1.172,0,0,1,129,224.2Z"/>
        <path id="Path_76" data-name="Path 76" class="cls-1" d="M133.3,223.8h0a.993.993,0,0,1,1.1.9l1.3,9.9a.993.993,0,0,1-.9,1.1h0a.993.993,0,0,1-1.1-.9l-1.3-9.9C132.4,224.3,132.7,223.8,133.3,223.8Z"/>
        <path id="Path_77" data-name="Path 77" class="cls-1" d="M137.5,223.1h0a1.1,1.1,0,0,1,1.2.8l1.7,9.8a1.1,1.1,0,0,1-.8,1.2h0a1.1,1.1,0,0,1-1.2-.8l-1.7-9.8A1.037,1.037,0,0,1,137.5,223.1Z"/>
        <path id="Path_78" data-name="Path 78" class="cls-1" d="M141.7,222.3h0a1.012,1.012,0,0,1,1.2.8l2.2,9.8a1.012,1.012,0,0,1-.8,1.2h0a1.012,1.012,0,0,1-1.2-.8l-2.2-9.8A1.037,1.037,0,0,1,141.7,222.3Z"/>
        <path id="Path_79" data-name="Path 79" class="cls-1" d="M145.9,221.3h0a1.028,1.028,0,0,1,1.2.7l2.6,9.7a1.028,1.028,0,0,1-.7,1.2h0a1.028,1.028,0,0,1-1.2-.7l-2.6-9.7A.859.859,0,0,1,145.9,221.3Z"/>
        <path id="Path_80" data-name="Path 80" class="cls-1" d="M150,220.1h0a1.015,1.015,0,0,1,1.3.7l3,9.5a1.015,1.015,0,0,1-.7,1.3h0a1.015,1.015,0,0,1-1.3-.7l-3-9.5C149.2,220.8,149.4,220.2,150,220.1Z"/>
        <path id="Path_81" data-name="Path 81" class="cls-1" d="M154,218.7h0a1.04,1.04,0,0,1,1.3.6l3.4,9.4a1.04,1.04,0,0,1-.6,1.3h0a1.04,1.04,0,0,1-1.3-.6l-3.4-9.4A1,1,0,0,1,154,218.7Z"/>
        <path id="Path_82" data-name="Path 82" class="cls-1" d="M158,217.1h0a.992.992,0,0,1,1.3.5l3.8,9.2a.992.992,0,0,1-.5,1.3h0a.992.992,0,0,1-1.3-.5l-3.8-9.2A.992.992,0,0,1,158,217.1Z"/>
        <path id="Path_83" data-name="Path 83" class="cls-1" d="M161.9,215.4h0a.992.992,0,0,1,1.3.5l4.2,9.1a.992.992,0,0,1-.5,1.3h0a.992.992,0,0,1-1.3-.5l-4.2-9.1A.992.992,0,0,1,161.9,215.4Z"/>
        <path id="Path_84" data-name="Path 84" class="cls-1" d="M165.8,213.5h0a.883.883,0,0,1,1.3.4l4.6,8.9a.883.883,0,0,1-.4,1.3h0a.883.883,0,0,1-1.3-.4l-4.6-8.9A.922.922,0,0,1,165.8,213.5Z"/>
        <path id="Path_85" data-name="Path 85" class="cls-1" d="M169.5,211.5h0a1.012,1.012,0,0,1,1.4.4l5,8.7a1.012,1.012,0,0,1-.4,1.4h0a1.012,1.012,0,0,1-1.4-.4l-5-8.7A1.075,1.075,0,0,1,169.5,211.5Z"/>
        <path id="Path_86" data-name="Path 86" class="cls-1" d="M173.2,209.2h0a.984.984,0,0,1,1.4.3l5.4,8.4a.984.984,0,0,1-.3,1.4h0a.984.984,0,0,1-1.4-.3l-5.4-8.4A1,1,0,0,1,173.2,209.2Z"/>
        <path id="Path_87" data-name="Path 87" class="cls-1" d="M176.7,206.9h0a1.058,1.058,0,0,1,1.4.2l5.7,8.2a1.058,1.058,0,0,1-.2,1.4h0a1.058,1.058,0,0,1-1.4-.2l-5.7-8.2A.965.965,0,0,1,176.7,206.9Z"/>
      </g>
      <path id="Path_88" data-name="Path 88" class="cls-2" d="M180.2,204.3h0a.978.978,0,0,1,1.4.2l6.1,7.9a.978.978,0,0,1-.2,1.4h0a.978.978,0,0,1-1.4-.2l-6.1-7.9A.913.913,0,0,1,180.2,204.3Z"/>
      <path id="Path_89" data-name="Path 89" class="cls-2" d="M183.5,201.7h0a.966.966,0,0,1,1.4.1l6.4,7.7a.966.966,0,0,1-.1,1.4h0a.966.966,0,0,1-1.4-.1l-6.4-7.7A.958.958,0,0,1,183.5,201.7Z"/>
      <path id="Path_90" data-name="Path 90" class="cls-2" d="M186.7,198.8h0a.972.972,0,0,1,1.4.1l6.8,7.4a.972.972,0,0,1-.1,1.4h0a.972.972,0,0,1-1.4-.1l-6.8-7.4A1.075,1.075,0,0,1,186.7,198.8Z"/>
      <path id="Path_91" data-name="Path 91" class="cls-2" d="M189.8,195.9h0a.967.967,0,0,1,1.4,0l7.1,7.1a.967.967,0,0,1,0,1.4h0a.967.967,0,0,1-1.4,0l-7.1-7.1A.967.967,0,0,1,189.8,195.9Z"/>
      <path id="Path_92" data-name="Path 92" class="cls-2" d="M192.8,192.8h0a1.071,1.071,0,0,1,1.4-.1l7.4,6.8a1.071,1.071,0,0,1,.1,1.4h0a1.071,1.071,0,0,1-1.4.1l-7.4-6.8A.9.9,0,0,1,192.8,192.8Z"/>
      <path id="Path_93" data-name="Path 93" class="cls-2" d="M195.6,189.6h0a.972.972,0,0,1,1.4-.1l7.7,6.4a.972.972,0,0,1,.1,1.4h0a.972.972,0,0,1-1.4.1l-7.7-6.4A.972.972,0,0,1,195.6,189.6Z"/>
      <path id="Path_94" data-name="Path 94" class="cls-2" d="M198.2,186.3h0a1.075,1.075,0,0,1,1.4-.2l7.9,6.1a1.075,1.075,0,0,1,.2,1.4h0a1.075,1.075,0,0,1-1.4.2l-7.9-6.1A1.09,1.09,0,0,1,198.2,186.3Z"/>
      <path id="Path_95" data-name="Path 95" class="cls-2" d="M200.8,182.8h0a.9.9,0,0,1,1.4-.2l8.2,5.7a.9.9,0,0,1,.2,1.4h0a.9.9,0,0,1-1.4.2l-8.2-5.7A1.058,1.058,0,0,1,200.8,182.8Z"/>
      <path id="Path_96" data-name="Path 96" class="cls-2" d="M203.2,179.2h0a.984.984,0,0,1,1.4-.3l8.4,5.4a.984.984,0,0,1,.3,1.4h0a.984.984,0,0,1-1.4.3l-8.4-5.4A.984.984,0,0,1,203.2,179.2Z"/>
      <path id="Path_97" data-name="Path 97" class="cls-2" d="M205.4,175.6h0a1.107,1.107,0,0,1,1.4-.4l8.7,5a1.107,1.107,0,0,1,.4,1.4h0a1.107,1.107,0,0,1-1.4.4l-8.7-5A1.012,1.012,0,0,1,205.4,175.6Z"/>
      <path id="Path_98" data-name="Path 98" class="cls-2" d="M207.4,171.8h0a.922.922,0,0,1,1.3-.4l8.9,4.6a.922.922,0,0,1,.4,1.3h0a.922.922,0,0,1-1.3.4l-8.9-4.6A1.053,1.053,0,0,1,207.4,171.8Z"/>
      <path id="Path_99" data-name="Path 99" class="cls-2" d="M209.3,168h0a.992.992,0,0,1,1.3-.5l9.1,4.2a.992.992,0,0,1,.5,1.3h0a.992.992,0,0,1-1.3.5l-9.1-4.2A.992.992,0,0,1,209.3,168Z"/>
      <path id="Path_100" data-name="Path 100" class="cls-2" d="M211,164.1h0a.917.917,0,0,1,1.3-.5l9.2,3.8a.917.917,0,0,1,.5,1.3h0a.917.917,0,0,1-1.3.5l-9.2-3.8A1.093,1.093,0,0,1,211,164.1Z"/>
      <path id="Path_101" data-name="Path 101" class="cls-2" d="M212.6,160.1h0a1.04,1.04,0,0,1,1.3-.6l9.4,3.4a1.04,1.04,0,0,1,.6,1.3h0a1.04,1.04,0,0,1-1.3.6l-9.4-3.4A1.04,1.04,0,0,1,212.6,160.1Z"/>
      <path id="Path_102" data-name="Path 102" class="cls-2" d="M214,156.1h0a1.146,1.146,0,0,1,1.3-.7l9.5,3a1.146,1.146,0,0,1,.7,1.3h0a1.146,1.146,0,0,1-1.3.7l-9.5-3C214.1,157.1,213.8,156.6,214,156.1Z"/>
      <path id="Path_103" data-name="Path 103" class="cls-2" d="M215.2,152h0a.949.949,0,0,1,1.2-.7l9.7,2.6a.949.949,0,0,1,.7,1.2h0a.949.949,0,0,1-1.2.7l-9.7-2.6A.919.919,0,0,1,215.2,152Z"/>
      <path id="Path_104" data-name="Path 104" class="cls-2" d="M216.2,147.8h0a1.1,1.1,0,0,1,1.2-.8l9.8,2.2a1.1,1.1,0,0,1,.8,1.2h0a1.1,1.1,0,0,1-1.2.8L217,149A1.012,1.012,0,0,1,216.2,147.8Z"/>
      <path id="Path_105" data-name="Path 105" class="cls-2" d="M217,143.6h0a1.037,1.037,0,0,1,1.2-.8l9.8,1.7a1.037,1.037,0,0,1,.8,1.2h0a1.037,1.037,0,0,1-1.2.8l-9.8-1.7A1.037,1.037,0,0,1,217,143.6Z"/>
      <path id="Path_106" data-name="Path 106" class="cls-2" d="M217.7,139.4h0a1.172,1.172,0,0,1,1.1-.9l9.9,1.3a1.172,1.172,0,0,1,.9,1.1h0a1.172,1.172,0,0,1-1.1.9l-9.9-1.3A.993.993,0,0,1,217.7,139.4Z"/>
      <path id="Path_107" data-name="Path 107" class="cls-2" d="M218.1,135.1h0a.9.9,0,0,1,1.1-.9l10,.9a.9.9,0,0,1,.9,1.1h0a.9.9,0,0,1-1.1.9l-10-.9A1.018,1.018,0,0,1,218.1,135.1Z"/>
      <path id="Path_108" data-name="Path 108" class="cls-2" d="M218.4,130.9h0a1,1,0,0,1,1-1l10,.4a1,1,0,0,1,1,1h0a1,1,0,0,1-1,1l-10-.4A1,1,0,0,1,218.4,130.9Z"/>
      <path id="Path_109" data-name="Path 109" class="cls-2" d="M218.5,126.6h0a.945.945,0,0,1,1-1h10a.945.945,0,0,1,1,1h0a.945.945,0,0,1-1,1h-10A1,1,0,0,1,218.5,126.6Z"/>
      <path id="Path_110" data-name="Path 110" class="cls-2" d="M218.4,122.3h0a.945.945,0,0,1,1-1l10-.4a.945.945,0,0,1,1,1h0a.945.945,0,0,1-1,1l-10,.4A1,1,0,0,1,218.4,122.3Z"/>
      <path id="Path_111" data-name="Path 111" class="cls-2" d="M218.1,118.1h0a1.088,1.088,0,0,1,.9-1.1l10-.9a1.088,1.088,0,0,1,1.1.9h0a1.088,1.088,0,0,1-.9,1.1l-10,.9A1.172,1.172,0,0,1,218.1,118.1Z"/>
      <path id="Path_112" data-name="Path 112" class="cls-2" d="M217.7,113.8h0a.993.993,0,0,1,.9-1.1l9.9-1.3a.993.993,0,0,1,1.1.9h0a.993.993,0,0,1-.9,1.1l-9.9,1.3A1.018,1.018,0,0,1,217.7,113.8Z"/>
      <path id="Path_113" data-name="Path 113" class="cls-2" d="M217,109.6h0a1.1,1.1,0,0,1,.8-1.2l9.8-1.7a1.1,1.1,0,0,1,1.2.8h0a1.1,1.1,0,0,1-.8,1.2l-9.8,1.7A1.037,1.037,0,0,1,217,109.6Z"/>
      <path id="Path_114" data-name="Path 114" class="cls-2" d="M216.2,105.4h0a1.012,1.012,0,0,1,.8-1.2l9.8-2.2a1.012,1.012,0,0,1,1.2.8h0a1.012,1.012,0,0,1-.8,1.2l-9.8,2.2A1.037,1.037,0,0,1,216.2,105.4Z"/>
      <path id="Path_115" data-name="Path 115" class="cls-2" d="M215.2,101.2h0a1.028,1.028,0,0,1,.7-1.2l9.7-2.6a1.028,1.028,0,0,1,1.2.7h0a1.028,1.028,0,0,1-.7,1.2l-9.7,2.6A.888.888,0,0,1,215.2,101.2Z"/>
      <path id="Path_116" data-name="Path 116" class="cls-2" d="M214,97.1h0a1.015,1.015,0,0,1,.7-1.3l9.5-3a1.015,1.015,0,0,1,1.3.7h0a1.015,1.015,0,0,1-.7,1.3l-9.5,3A1.089,1.089,0,0,1,214,97.1Z"/>
      <path id="Path_117" data-name="Path 117" class="cls-2" d="M212.6,93.1h0a1.04,1.04,0,0,1,.6-1.3l9.4-3.4a1.04,1.04,0,0,1,1.3.6h0a1.04,1.04,0,0,1-.6,1.3l-9.4,3.4A1.04,1.04,0,0,1,212.6,93.1Z"/>
      <path id="Path_118" data-name="Path 118" class="cls-2" d="M211,89.1h0a.992.992,0,0,1,.5-1.3l9.2-3.8a.992.992,0,0,1,1.3.5h0a.992.992,0,0,1-.5,1.3l-9.2,3.8A1.027,1.027,0,0,1,211,89.1Z"/>
      <path id="Path_119" data-name="Path 119" class="cls-2" d="M209.3,85.2h0a.992.992,0,0,1,.5-1.3l9.1-4.2a.992.992,0,0,1,1.3.5h0a.992.992,0,0,1-.5,1.3l-9.1,4.2A1.027,1.027,0,0,1,209.3,85.2Z"/>
      <path id="Path_120" data-name="Path 120" class="cls-2" d="M207.4,81.3h0a.883.883,0,0,1,.4-1.3l8.9-4.6a.883.883,0,0,1,1.3.4h0a.883.883,0,0,1-.4,1.3l-8.9,4.6A.922.922,0,0,1,207.4,81.3Z"/>
      <path id="Path_121" data-name="Path 121" class="cls-2" d="M205.4,77.6h0a1.012,1.012,0,0,1,.4-1.4l8.7-5a1.012,1.012,0,0,1,1.4.4h0a1.012,1.012,0,0,1-.4,1.4l-8.7,5A1.075,1.075,0,0,1,205.4,77.6Z"/>
      <path id="Path_122" data-name="Path 122" class="cls-2" d="M203.2,73.9h0a.984.984,0,0,1,.3-1.4l8.4-5.4a.984.984,0,0,1,1.4.3h0a.984.984,0,0,1-.3,1.4l-8.4,5.4A.965.965,0,0,1,203.2,73.9Z"/>
      <path id="Path_123" data-name="Path 123" class="cls-2" d="M200.8,70.4h0A1.058,1.058,0,0,1,201,69l8.2-5.7a1.058,1.058,0,0,1,1.4.2h0a1.058,1.058,0,0,1-.2,1.4l-8.2,5.7A1.058,1.058,0,0,1,200.8,70.4Z"/>
      <path id="Path_124" data-name="Path 124" class="cls-2" d="M198.2,66.9h0a.978.978,0,0,1,.2-1.4l7.9-6.1a.978.978,0,0,1,1.4.2h0a.978.978,0,0,1-.2,1.4l-7.9,6.1A.913.913,0,0,1,198.2,66.9Z"/>
      <path id="Path_125" data-name="Path 125" class="cls-2" d="M195.6,63.6h0a.966.966,0,0,1,.1-1.4l7.7-6.4a.966.966,0,0,1,1.4.1h0a.966.966,0,0,1-.1,1.4L197,63.7A.966.966,0,0,1,195.6,63.6Z"/>
      <path id="Path_126" data-name="Path 126" class="cls-2" d="M192.8,60.4h0a.972.972,0,0,1,.1-1.4l7.4-6.8a.972.972,0,0,1,1.4.1h0a.972.972,0,0,1-.1,1.4l-7.4,6.8A1.063,1.063,0,0,1,192.8,60.4Z"/>
      <path id="Path_127" data-name="Path 127" class="cls-2" d="M189.8,57.3h0a.967.967,0,0,1,0-1.4l7.1-7.1a.967.967,0,0,1,1.4,0h0a.967.967,0,0,1,0,1.4l-7.1,7.1A.967.967,0,0,1,189.8,57.3Z"/>
      <path id="Path_128" data-name="Path 128" class="cls-2" d="M186.7,54.3h0a1.071,1.071,0,0,1-.1-1.4l6.8-7.4a1.071,1.071,0,0,1,1.4-.1h0a1.071,1.071,0,0,1,.1,1.4l-6.8,7.4A.9.9,0,0,1,186.7,54.3Z"/>
      <path id="Path_129" data-name="Path 129" class="cls-2" d="M183.5,51.5h0a.972.972,0,0,1-.1-1.4l6.4-7.7a.972.972,0,0,1,1.4-.1h0a.972.972,0,0,1,.1,1.4l-6.4,7.7A.972.972,0,0,1,183.5,51.5Z"/>
      <path id="Path_130" data-name="Path 130" class="cls-2" d="M180.2,48.8h0a1.075,1.075,0,0,1-.2-1.4l6.1-7.9a1.075,1.075,0,0,1,1.4-.2h0a1.075,1.075,0,0,1,.2,1.4l-6.1,7.9A.913.913,0,0,1,180.2,48.8Z"/>
      <path id="Path_131" data-name="Path 131" class="cls-2" d="M176.7,46.3h0a.9.9,0,0,1-.2-1.4l5.7-8.2a.9.9,0,0,1,1.4-.2h0a.9.9,0,0,1,.2,1.4l-5.7,8.2A1.058,1.058,0,0,1,176.7,46.3Z"/>
      <path id="Path_132" data-name="Path 132" class="cls-2" d="M173.2,43.9h0a.984.984,0,0,1-.3-1.4l5.4-8.4a.984.984,0,0,1,1.4-.3h0a.984.984,0,0,1,.3,1.4l-5.4,8.4A1.015,1.015,0,0,1,173.2,43.9Z"/>
      <path id="Path_133" data-name="Path 133" class="cls-2" d="M169.5,41.7h0a1.107,1.107,0,0,1-.4-1.4l5-8.7a1.107,1.107,0,0,1,1.4-.4h0a1.107,1.107,0,0,1,.4,1.4l-5,8.7A1.012,1.012,0,0,1,169.5,41.7Z"/>
      <path id="Path_134" data-name="Path 134" class="cls-2" d="M165.8,39.7h0a.922.922,0,0,1-.4-1.3l4.6-8.9a.922.922,0,0,1,1.3-.4h0a.922.922,0,0,1,.4,1.3l-4.6,8.9A1.134,1.134,0,0,1,165.8,39.7Z"/>
      <path id="Path_135" data-name="Path 135" class="cls-2" d="M161.9,37.8h0a.992.992,0,0,1-.5-1.3l4.2-9.1a.992.992,0,0,1,1.3-.5h0a.992.992,0,0,1,.5,1.3l-4.2,9.1A.992.992,0,0,1,161.9,37.8Z"/>
      <path id="Path_136" data-name="Path 136" class="cls-2" d="M158,36.1h0a.917.917,0,0,1-.5-1.3l3.8-9.2a.917.917,0,0,1,1.3-.5h0a.917.917,0,0,1,.5,1.3l-3.8,9.2A1.093,1.093,0,0,1,158,36.1Z"/>
      <path id="Path_137" data-name="Path 137" class="cls-2" d="M154,34.5h0a1.04,1.04,0,0,1-.6-1.3l3.4-9.4a1.04,1.04,0,0,1,1.3-.6h0a1.04,1.04,0,0,1,.6,1.3l-3.4,9.4A1.04,1.04,0,0,1,154,34.5Z"/>
      <path id="Path_138" data-name="Path 138" class="cls-2" d="M150,33.1h0a1.146,1.146,0,0,1-.7-1.3l3-9.5a1.146,1.146,0,0,1,1.3-.7h0a1.146,1.146,0,0,1,.7,1.3l-3,9.5A1.015,1.015,0,0,1,150,33.1Z"/>
      <path id="Path_139" data-name="Path 139" class="cls-2" d="M145.9,31.9h0a.949.949,0,0,1-.7-1.2l2.6-9.7a.949.949,0,0,1,1.2-.7h0a.949.949,0,0,1,.7,1.2l-2.6,9.7A.919.919,0,0,1,145.9,31.9Z"/>
      <path id="Path_140" data-name="Path 140" class="cls-2" d="M141.7,30.9h0a1.1,1.1,0,0,1-.8-1.2l2.2-9.8a1.1,1.1,0,0,1,1.2-.8h0a1.1,1.1,0,0,1,.8,1.2l-2.2,9.8A.967.967,0,0,1,141.7,30.9Z"/>
      <path id="Path_141" data-name="Path 141" class="cls-2" d="M137.5,30.1h0a1.037,1.037,0,0,1-.8-1.2l1.7-9.8a1.037,1.037,0,0,1,1.2-.8h0a1.037,1.037,0,0,1,.8,1.2l-1.7,9.8A1.037,1.037,0,0,1,137.5,30.1Z"/>
      <path id="Path_142" data-name="Path 142" class="cls-2" d="M133.3,29.4h0a1.172,1.172,0,0,1-.9-1.1l1.3-9.9a1.172,1.172,0,0,1,1.1-.9h0a1.172,1.172,0,0,1,.9,1.1l-1.3,9.9A.993.993,0,0,1,133.3,29.4Z"/>
      <path id="Path_143" data-name="Path 143" class="cls-2" d="M129,29h0a.9.9,0,0,1-.9-1.1l.9-10a.9.9,0,0,1,1.1-.9h0a.9.9,0,0,1,.9,1.1l-.9,10A1.018,1.018,0,0,1,129,29Z"/>
      <path id="Path_144" data-name="Path 144" class="cls-2" d="M124.8,28.7h0a1,1,0,0,1-1-1l.4-10a1,1,0,0,1,1-1h0a1,1,0,0,1,1,1l-.4,10A1,1,0,0,1,124.8,28.7Z"/>
    </g>
    <g id="icarus_mark" data-name="icarus mark" transform="translate(379.9 377.4)">
      <path id="Path_145" data-name="Path 145" class="cls-3" d="M89.1,77.8V62.1h3.7V77.7H89.1Z"/>
      <path id="Path_146" data-name="Path 146" class="cls-3" d="M105,72.6c-.6,3.6-2.2,5.3-5.2,5.3-4,0-5.3-3.1-5.3-8.1,0-4.3,1.4-7.9,5.4-7.9,3.4,0,4.7,2,5,5.2l-3.4.3c-.2-1.6-.7-2.4-1.6-2.4-1.2,0-1.7,1.2-1.7,4.8,0,4,.5,5.1,1.7,5.1.8,0,1.4-.9,1.7-2.7Z"/>
      <path id="Path_147" data-name="Path 147" class="cls-3" d="M113,77.8l-.6-3.4h-3l-.5,3.4h-3.7l3.4-15.6h4.7l3.4,15.6Zm-3-6.5h1.9l-1-5.6h-.1Z"/>
      <path id="Path_148" data-name="Path 148" class="cls-3" d="M124.5,77.8l-1.7-5.9h-1.3v5.9h-3.6V62.1h4.8c3.4,0,5.2,1.3,5.2,4.5a4.011,4.011,0,0,1-1.9,3.8l2.5,7.3h-4ZM122.4,69c.9,0,1.7-.4,1.7-1.9,0-1.9-1-1.9-1.6-1.9h-1V69Z"/>
      <path id="Path_149" data-name="Path 149" class="cls-3" d="M136.4,62.1H140V72.5c0,3.6-1.6,5.4-5.3,5.4-3.6,0-5.1-1.9-5.1-5.4V62.1h3.7V73c0,1.3.5,1.9,1.5,1.9s1.6-.6,1.6-1.9Z"/>
      <path id="Path_150" data-name="Path 150" class="cls-3" d="M148,66.6c-.3-1-.7-1.7-1.7-1.7a1.078,1.078,0,0,0-1.2,1.1c0,2.8,6.2,2.4,6.2,7.6,0,2.8-2,4.4-5.1,4.4-3,0-4.5-1.3-5-4.2l3.4-.6c.2,1.2.7,2,1.8,2a1.236,1.236,0,0,0,1.4-1.3c0-2.9-6.2-2.5-6.2-7.8,0-2.4,1.8-4.1,4.6-4.1,3,0,4.3,1.5,4.9,4Z"/>
    </g>
    <path id="pause" class="cls-4" d="M116,139.1h-5.4a2.689,2.689,0,0,1-2.7-2.7V116.8a2.689,2.689,0,0,1,2.7-2.7H116a2.689,2.689,0,0,1,2.7,2.7v19.6A2.689,2.689,0,0,1,116,139.1Zm17-2.7V116.8a2.689,2.689,0,0,0-2.7-2.7H125a2.689,2.689,0,0,0-2.7,2.7v19.6a2.689,2.689,0,0,0,2.7,2.7h5.4A2.669,2.669,0,0,0,133,136.4Z" transform="translate(379.1 373.9)"/>
    <g id="share_button" data-name="share button" transform="translate(379.9 373.4)">
      <path id="Path_152" data-name="Path 152" class="cls-4" d="M102.1,178.4a1.921,1.921,0,0,0-1.9-1.4c-.9,0-1.5.4-1.5,1.2,0,2,5.3.9,5.3,4.6,0,2-1.5,3.1-3.7,3.1a3.578,3.578,0,0,1-3.8-2.7l1.8-.6a1.979,1.979,0,0,0,2.1,1.7c1,0,1.7-.5,1.7-1.3,0-2.2-5.3-1-5.3-4.7,0-1.7,1.4-2.8,3.3-2.8,1.8,0,3,.7,3.5,2.3Z"/>
      <path id="Path_153" data-name="Path 153" class="cls-4" d="M112.4,185.7v-4.3h-4.1v4.3h-1.9V175.6h1.9v4h4.1v-4h1.9v10.1Z"/>
      <path id="Path_154" data-name="Path 154" class="cls-4" d="M123,185.7l-.7-2.6H119l-.7,2.6h-1.9l3-10.1H122l3,10.1Zm-3.5-4.3h2.4l-1.2-4.2h0Z"/>
      <path id="Path_155" data-name="Path 155" class="cls-4" d="M132.7,185.7l-1.8-4H129v4h-1.9V175.6h3.4c2.7,0,3.9,1,3.9,2.9a2.617,2.617,0,0,1-1.8,2.6l2.2,4.6Zm-2.2-5.6c.7,0,1.9-.1,1.9-1.4,0-1.2-1-1.4-1.8-1.4H129v2.8h1.5Z"/>
      <path id="Path_156" data-name="Path 156" class="cls-4" d="M137,185.7V175.6h6.5v1.6h-4.6v2.5h3.3v1.6h-3.3v2.8h4.7v1.6H137Z"/>
      <path id="share_border" data-name="share border" class="cls-5" d="M147.1,190.7H93.2a3.116,3.116,0,0,1-3.1-3.1V173.7a3.116,3.116,0,0,1,3.1-3.1h53.9a3.116,3.116,0,0,1,3.1,3.1v13.9A3.254,3.254,0,0,1,147.1,190.7Z"/>
    </g>
    <g id="rewind_15_seconds" data-name="rewind 15 seconds" transform="translate(379.5 373.4)">
      <circle id="Ellipse_5" data-name="Ellipse 5" class="cls-6" cx="12.5" cy="12.5" r="12.5" transform="translate(52.6 113.6)"/>
      <path id="Path_158" data-name="Path 158" class="cls-4" d="M67.6,112.9v-2.3c0-.5-.5-.9-.9-.6l-4.6,3a.775.775,0,0,0-.2,1c0,.1.1.1.2.2h0l4.6,3a.6.6,0,0,0,.9-.6v-1.8a11.489,11.489,0,1,1-14,11.2,1,1,0,0,0-2,0,13.5,13.5,0,1,0,16-13.1Z"/>
      <g id="Group_5" data-name="Group 5">
        <path id="Path_159" data-name="Path 159" class="cls-4" d="M60.9,130.8v-6.9h-.1l-2,1.4v-1.7l2-1.5h1.8v8.7Z"/>
        <path id="Path_160" data-name="Path 160" class="cls-4" d="M66.8,128.5a1.453,1.453,0,0,0,1.5,1,1.5,1.5,0,0,0,0-3,1.719,1.719,0,0,0-1.4.7H65.3l.4-5.1h5.4v1.5H67.2l-.2,2.1h.1a2.085,2.085,0,0,1,1.7-.7,2.675,2.675,0,0,1,2.8,2.8,3,3,0,0,1-3.3,3.1c-1.9,0-3.1-1.1-3.1-2.5h1.6Z"/>
      </g>
    </g>
    <g id="forward_15_seconds" data-name="forward 15 seconds" transform="translate(379.5 373.4)">
      <g id="Group_7" data-name="Group 7">
        <circle id="Ellipse_6" data-name="Ellipse 6" class="cls-6" cx="12.5" cy="12.5" r="12.5" transform="translate(163.1 113.6)"/>
        <path id="Path_161" data-name="Path 161" class="cls-4" d="M173.1,112.9v-2.3c0-.5.5-.9.9-.6l4.6,3a.775.775,0,0,1,.2,1c0,.1-.1.1-.2.2h0l-4.6,3a.6.6,0,0,1-.9-.6v-1.8a11.489,11.489,0,1,0,14,11.2,1,1,0,0,1,2,0,13.5,13.5,0,1,1-16-13.1Z"/>
      </g>
      <g id="Group_8" data-name="Group 8">
        <path id="Path_162" data-name="Path 162" class="cls-4" d="M171.3,130.8v-6.9h-.1l-2,1.4v-1.7l2-1.5H173v8.7Z"/>
        <path id="Path_163" data-name="Path 163" class="cls-4" d="M177.2,128.5a1.453,1.453,0,0,0,1.5,1,1.5,1.5,0,0,0,0-3,1.719,1.719,0,0,0-1.4.7h-1.6l.4-5.1h5.4v1.5h-3.9l-.2,2.1h.1a2.085,2.085,0,0,1,1.7-.7,2.675,2.675,0,0,1,2.8,2.8,3,3,0,0,1-3.3,3.1c-1.9,0-3.1-1.1-3.1-2.5h1.6Z"/>
      </g>
    </g>
    <circle id="live_point" data-name="live point" class="cls-2" cx="10" cy="10" r="10" transform="translate(553.3 572.6)"/>
    <g id="time" transform="translate(0 -2)">
      <text id="_-" data-name="-" class="cls-7" transform="matrix(0.955, -0.298, 0.298, 0.955, 463.65, 390.846)"><tspan x="0" y="0">-</tspan></text>
      <text id="_6" data-name="6" class="cls-7" transform="translate(467.52 389.576) rotate(-14.23)"><tspan x="0" y="0">6</tspan></text>
      <text id=":" class="cls-7" transform="translate(475.67 387.566) rotate(-11.27)"><tspan x="0" y="0">:</tspan></text>
      <text id="_0" data-name="0" class="cls-7" transform="translate(479 386.836) rotate(-8.049)"><tspan x="0" y="0">0</tspan></text>
      <text id="_0-2" data-name="0" class="cls-7" transform="translate(487.39 385.606) rotate(-4.07)"><tspan x="0" y="0">0</tspan></text>
      <text id="_4" data-name="4" class="cls-8" transform="translate(503.79 384.996) rotate(4.004)"><tspan x="0" y="0">4</tspan></text>
      <text id=":-2" data-name=":" class="cls-8" transform="matrix(0.993, 0.12, -0.12, 0.993, 512, 385.616)"><tspan x="0" y="0">:</tspan></text>
      <text id="_0-3" data-name="0" class="cls-8" transform="translate(515.37 385.946) rotate(9.77)"><tspan x="0" y="0">0</tspan></text>
      <text id="_0-4" data-name="0" class="cls-8" transform="translate(523.75 387.376) rotate(14.03)"><tspan x="0" y="0">0</tspan></text>
    </g>
  </g>
</svg>
