<svg id="Layer_1" data-name="Layer 1" xmlns="http://www.w3.org/2000/svg" viewBox="0 0 126.32 38.63"><title>coke</title><path d="M287.37,408.7a27.6,27.6,0,0,0-5.87-.56,24,24,0,0,0-7.09.81c-3.38.78-8.26,2.17-11.5,3a27.87,27.87,0,0,1-6.44,1,13.17,13.17,0,0,1-2.24-.19,8.45,8.45,0,0,1-1.79-.53,6.22,6.22,0,0,1-1.33-.74,6.14,6.14,0,0,1-1-.91,5.26,5.26,0,0,1-.7-1.06,5.4,5.4,0,0,1-.46-1.22,6.9,6.9,0,0,1-.23-1.43,8.7,8.7,0,0,1,0-1.61,13.25,13.25,0,0,1,.6-2.8,32.88,32.88,0,0,1,1.7-4.26,59.31,59.31,0,0,1,3.16-5.74,66.14,66.14,0,0,1,4-5.66,46.8,46.8,0,0,1,3.66-4.1,26.82,26.82,0,0,1,2.85-2.45,13.46,13.46,0,0,1,2.1-1.29,8,8,0,0,1,1.6-.61,5.14,5.14,0,0,1,1.3-.18,1,1,0,0,1,.69.2.9.9,0,0,1,.23.72,3.17,3.17,0,0,1,0,.52,8.91,8.91,0,0,0-1.84,1.22,7.7,7.7,0,0,0-.57.56,2.36,2.36,0,0,0-.65,1.26,1.28,1.28,0,0,0,.51,1c.75.59,1.69.2,2.63-.86a6.26,6.26,0,0,0,.53-.73,5.92,5.92,0,0,0,.44-.87,3.74,3.74,0,0,0,0-3.47,2.25,2.25,0,0,0-.61-.62,3,3,0,0,0-.87-.41,3.9,3.9,0,0,0-1.29-.13,11.36,11.36,0,0,0-2.19.28,16.92,16.92,0,0,0-2.9,1,25,25,0,0,0-3.6,2,38,38,0,0,0-4.3,3.35,49.34,49.34,0,0,0-4.48,4.62,44.65,44.65,0,0,0-6.49,9.92,25.05,25.05,0,0,0-1.46,3.88,15.55,15.55,0,0,0-.6,3.14,13.33,13.33,0,0,0,.13,3.72,8.13,8.13,0,0,0,.42,1.44,6.41,6.41,0,0,0,.61,1.23,5.79,5.79,0,0,0,.85,1.07,6.69,6.69,0,0,0,1.14.91,7.72,7.72,0,0,0,1.55.77,11.08,11.08,0,0,0,2.2.57,19.33,19.33,0,0,0,3,.22,23.13,23.13,0,0,0,6.12-.69c2.81-.61,6.75-1.7,9.56-2.31a23.27,23.27,0,0,1,6.16-.68,17.46,17.46,0,0,1,2.93.21,8.28,8.28,0,0,1,2.06.6,6.92,6.92,0,0,1,1.72,1.05,12.94,12.94,0,0,1,1.8,1.82,14,14,0,0,1,5.15-2.21,10.86,10.86,0,0,1,2-.19,6.77,6.77,0,0,1,.85.07,8.76,8.76,0,0,1,1.69.44c1,.33,2.69.94,4.35,1.57a30,30,0,0,0-5-3.83A15.42,15.42,0,0,0,287.37,408.7Zm21.11-22.33h-3.83l-1.94,3.52h3.68Zm55.71-6.14a16.7,16.7,0,0,1-4.61,2,20.55,20.55,0,0,1-5.26.62l-3.3,4,.76.09a14.84,14.84,0,0,0,5.23-.42,20.1,20.1,0,0,0,7.58-4,19.13,19.13,0,0,0,2.81-2.93,14.07,14.07,0,0,0,1.76-3A34.92,34.92,0,0,1,364.19,380.23Zm-4.36,25.19c-.68.93-1.39,1.83-2,2.52a19.36,19.36,0,0,1-1.36,1.48,8.61,8.61,0,0,1-.83.74,3.63,3.63,0,0,1-.54.35,1.15,1.15,0,0,1-.78.18c-.28-.07-.27-.32-.26-.47s-.05,0,.35-.7c.29-.56.85-1.61,1.42-2.66l6.59-11.22h-3.24l-1.12,1a8.49,8.49,0,0,0-1.13-.66,2.63,2.63,0,0,0-.7-.24,3.08,3.08,0,0,0-.61-.06,6.58,6.58,0,0,0-3.36,1.07c-.35.21-.73.47-1.16.79s-.89.75-1.46,1.27a22.9,22.9,0,0,0-2.42,2.67c-1.18,1.48-2.88,3.79-4.08,5.36s-1.88,2.44-2.36,3a6.44,6.44,0,0,1-.95.9,3,3,0,0,1-.5.28,1.06,1.06,0,0,1-.52.07c-.31,0-.66-.46-.71-.77a3.45,3.45,0,0,1,.16-1.73c.12-.52.34-1.29.66-2.28s.75-2.19,1.2-3.38a76,76,0,0,0,6.82-4.94,34,34,0,0,0,4.51-4.44,55,55,0,0,0,4-5.37l-1.49.16a41.19,41.19,0,0,1-3.24,4.07,52.25,52.25,0,0,1-9.17,8.1c1.1-2.08,2.28-4.14,3.52-6.15s2.52-4,3.81-5.76,2.55-3.43,3.69-4.79,2.16-2.43,3-3.23a18.43,18.43,0,0,1,2-1.69,5.34,5.34,0,0,1,1.13-.65,1.65,1.65,0,0,1,.64-.16.43.43,0,0,1,.26.09c.35.31.29.48.23.82a2.63,2.63,0,0,1-.2.58c-.15.39-.43,1.06-.72,1.72l1.34-.16a11.26,11.26,0,0,0,.62-1.08,2.13,2.13,0,0,0,.22-.6,2.52,2.52,0,0,0,.09-.57,2,2,0,0,0-.67-1.82,1.62,1.62,0,0,0-.54-.31,3.59,3.59,0,0,0-2.11.12,9.46,9.46,0,0,0-1.95.83,18.43,18.43,0,0,0-2.71,1.83,37.92,37.92,0,0,0-3.73,3.45,64.31,64.31,0,0,0-4.64,5.47c-1.63,2.15-3.32,4.6-4.86,7.1s-2.94,5.07-4.21,7.69H334c.35-.73.68-1.48.89-2a9.77,9.77,0,0,0,.37-1.2,4.58,4.58,0,0,0-.1-2.7,2.71,2.71,0,0,0-.38-.64,2.15,2.15,0,0,0-1.81-.81,4.92,4.92,0,0,0-1,.15,6.62,6.62,0,0,0-1.35.49,12,12,0,0,0-1.74,1,18.59,18.59,0,0,0-2.15,1.78,27.24,27.24,0,0,0-5.87,8.19,16,16,0,0,0-.79,2.17,9.83,9.83,0,0,0-.32,1.65,5,5,0,0,0,0,1.24,3.24,3.24,0,0,0,.3,1,2.45,2.45,0,0,0,.56.74,2.27,2.27,0,0,0,.77.48,2.83,2.83,0,0,0,1,.17,4.82,4.82,0,0,0,2.21-.59,10,10,0,0,0,1.47-.94,17,17,0,0,0,1.88-1.68,30.26,30.26,0,0,0,2.45-2.89c.91-1.22,2-2.75,2.93-4.31H335c-.58,1.53-1.14,3.08-1.46,4.06a11.33,11.33,0,0,0-.47,1.79,8.44,8.44,0,0,0-.16,2.13,3.23,3.23,0,0,0,.18.8,2.74,2.74,0,0,0,.34.66,2.79,2.79,0,0,0,.51.52,2.46,2.46,0,0,0,.67.33,2.64,2.64,0,0,0,.81.12,5.35,5.35,0,0,0,3.09-1.14,14.5,14.5,0,0,0,1.52-1.27,26.82,26.82,0,0,0,2-2.07,13.11,13.11,0,0,0-.05,1.36,7.55,7.55,0,0,0,.08,1,5.15,5.15,0,0,0,.16.65,2.19,2.19,0,0,0,.21.46,1.68,1.68,0,0,0,.5.57,1.76,1.76,0,0,0,1.14.31,3.66,3.66,0,0,0,.69-.07,4.73,4.73,0,0,0,1.59-.64,8,8,0,0,0,1.13-.85c.48-.42,1.09-1,1.68-1.64,0,.44-.06.88-.06,1.22a3.84,3.84,0,0,0,.08.74,2.18,2.18,0,0,0,.12.46,1.4,1.4,0,0,0,.8.83,3.91,3.91,0,0,0,2.88-.48,10.06,10.06,0,0,0,1.44-.93,16.68,16.68,0,0,0,1.78-1.65,24.87,24.87,0,0,0,2.17-2.68,43.14,43.14,0,0,0,2.39-3.76Zm-29.12,1.05a22.41,22.41,0,0,1-1.45,1.9,15.76,15.76,0,0,1-1.33,1.41,8.51,8.51,0,0,1-1,.82,3.57,3.57,0,0,1-.63.35.94.94,0,0,1-.4.09,1.26,1.26,0,0,1-1-.58,2.48,2.48,0,0,1-.24-.46,2.8,2.8,0,0,1-.13-1.29,8.42,8.42,0,0,1,.2-1.1,8.57,8.57,0,0,1,.44-1.29,13.12,13.12,0,0,1,3.51-4.57,3.62,3.62,0,0,0,.69,1.06,3.8,3.8,0,0,0,.54.48,4.65,4.65,0,0,0,.85.5,10.62,10.62,0,0,0,1.38.52A24.91,24.91,0,0,1,330.71,406.47Zm3.11-6.82c0,.23-.06.46-.11.69a3.56,3.56,0,0,1-.31.92c-.2.48-.55,1.21-.93,1.92a7.38,7.38,0,0,1-1.07-.44,2.64,2.64,0,0,1-.6-.37,2.15,2.15,0,0,1-.34-.33,2.06,2.06,0,0,1-.39-.68,2.9,2.9,0,0,1,1.25-3.42,2.18,2.18,0,0,1,1.21-.36,1.29,1.29,0,0,1,1,.29,1.54,1.54,0,0,1,.34,1.09C333.85,399.15,333.84,399.4,333.82,399.65Zm17.44,7.71a20.79,20.79,0,0,1-1.37,1.87,8.06,8.06,0,0,1-1,1,3,3,0,0,1-.71.47,1.17,1.17,0,0,1-1.23-.05c-.26-.32-.22-.55-.2-1,0-.2.07-.47.14-.77a8.84,8.84,0,0,1,.31-1,11.32,11.32,0,0,1,.58-1.34,19.37,19.37,0,0,1,1-1.72,23.12,23.12,0,0,1,1.46-2.09c.56-.72,1.21-1.48,1.82-2.14a20.9,20.9,0,0,1,1.72-1.65A9.65,9.65,0,0,1,355,398a3.68,3.68,0,0,1,.69-.35,1.27,1.27,0,0,1,.43-.09,1.12,1.12,0,0,1,.56.11c.25.23.11.49,0,.81a5.3,5.3,0,0,1-.29.7c-.14.28-.33.62-.53.95ZM322,401.05a14.44,14.44,0,0,0,.4-2.35,4.14,4.14,0,0,0-.13-1.57,2.42,2.42,0,0,0-.25-.51,1.89,1.89,0,0,0-.82-.69,2.68,2.68,0,0,0-.64-.19,3.79,3.79,0,0,0-.87-.08,7.11,7.11,0,0,0-1.08.1,8.43,8.43,0,0,0-4.71,2.91,14.93,14.93,0,0,0-1.25,1.62,17.53,17.53,0,0,0-1.19,2.08,20.24,20.24,0,0,0-1,2.45,26.85,26.85,0,0,0-.74,2.7c.85-.71,1.72-1.39,2.34-1.85a12.58,12.58,0,0,1,1.51-1c.5-.27,1.14-.59,1.79-.88a13.63,13.63,0,0,1,1-2.91,11.25,11.25,0,0,1,.58-1.06c.2-.3.39-.55.57-.77a3.78,3.78,0,0,1,1.5-1.17,1.6,1.6,0,0,1,1.86.22,1.58,1.58,0,0,1,.34.91,10.3,10.3,0,0,1-.73,3.57,16.25,16.25,0,0,1-.79,1.75,17.49,17.49,0,0,1-1.19,1.89,20,20,0,0,1-3.66,3.85,12.86,12.86,0,0,1-3.75,2.16,4.21,4.21,0,0,1-1.17.22,3.06,3.06,0,0,1-1-.15,3.74,3.74,0,0,1-1.72-1.2,5.43,5.43,0,0,1-.59-1,4.48,4.48,0,0,1-.34-2.16,12.08,12.08,0,0,1,.83-3,55.55,55.55,0,0,1,2.53-5.61c1.15-2.21,2.6-4.67,4-6.82a65.12,65.12,0,0,1,3.95-5.44,42.39,42.39,0,0,1,3.25-3.6,27,27,0,0,1,2.59-2.27,17.82,17.82,0,0,1,2.06-1.37,12.45,12.45,0,0,1,1.68-.8,9.71,9.71,0,0,1,4-.55,24.35,24.35,0,0,0-3,2.05,19.91,19.91,0,0,0-4.12,4.27,13.66,13.66,0,0,0-1.07,1.84,8.93,8.93,0,0,0-.6,1.61,8.52,8.52,0,0,0-.26,1.35,3.12,3.12,0,0,0,0,.87,2.63,2.63,0,0,0,.16.63,1.78,1.78,0,0,0,.3.48,1.87,1.87,0,0,0,.43.36,2.28,2.28,0,0,0,.61.24,3.62,3.62,0,0,0,.76.08,4.28,4.28,0,0,0,1.83-.46,8.57,8.57,0,0,0,1.19-.72,12.18,12.18,0,0,0,1.39-1.18,16.21,16.21,0,0,0,1.44-1.66,17,17,0,0,0,1.3-1.95,14.9,14.9,0,0,0,1.53-3.71,10.07,10.07,0,0,0,.27-1.53c0-.13,0-.25,0-.49s0-.61,0-.87,0-.41,0-.57a13.39,13.39,0,0,1,3.55.43,12.66,12.66,0,0,1,3.67,1.71,52.44,52.44,0,0,1,5.36,4l3.57-3.69a33.12,33.12,0,0,0-3.5-2.66,18.93,18.93,0,0,0-2.83-1.55,12.82,12.82,0,0,0-2.23-.71,8.59,8.59,0,0,0-3-.14,9.09,9.09,0,0,0-1.59.33c-.8.22-2,.61-3.17,1a16.82,16.82,0,0,0-1.78-1,4,4,0,0,0-1.11-.35,8.18,8.18,0,0,0-3.71.36,21.44,21.44,0,0,0-3.81,1.59,38.46,38.46,0,0,0-5,3.18,51.05,51.05,0,0,0-5.24,4.55,50,50,0,0,0-4.48,5.06,43.71,43.71,0,0,0-3.24,4.81,34,34,0,0,0-2.1,4.26,28.09,28.09,0,0,0-1.21,3.73,19.68,19.68,0,0,0-.54,3.1,8.42,8.42,0,0,0,0,2.15,6.91,6.91,0,0,0,.48,1.81,6.31,6.31,0,0,0,2.31,2.85,7.09,7.09,0,0,0,1.74.81,6.61,6.61,0,0,0,4,0,13.13,13.13,0,0,0,2.51-1.06,22.52,22.52,0,0,0,9.21-10.11A17.6,17.6,0,0,0,322,401.05Zm9.74-21.42a12.59,12.59,0,0,1-.43,2.21,24.73,24.73,0,0,1-.89,2.63,22.77,22.77,0,0,1-1.13,2.36,15.65,15.65,0,0,1-1.07,1.66,6.39,6.39,0,0,1-2.36,2.09,2.24,2.24,0,0,1-2.18,0,1.21,1.21,0,0,1-.43-.62,4.3,4.3,0,0,1,.44-2.34,7.82,7.82,0,0,1,.58-1.16,12.08,12.08,0,0,1,1-1.42,17,17,0,0,1,1.6-1.75,21.83,21.83,0,0,1,2.29-2A20.45,20.45,0,0,1,331.75,379.63Zm-35.19,19.52a14.06,14.06,0,0,1-1.19,1.3,3.58,3.58,0,0,1-.51.41,1.12,1.12,0,0,1-.82.22.41.41,0,0,1-.37-.45.8.8,0,0,1,.1-.47c.08-.18.21-.49.59-1.24s1-1.94,1.64-3.12l5.55-9.46H298l-.66.81a9.27,9.27,0,0,0-1.31-.68,2.83,2.83,0,0,0-.81-.23,4.56,4.56,0,0,0-.75-.06,5.28,5.28,0,0,0-2.67.84,12.87,12.87,0,0,0-1.35,1,16.32,16.32,0,0,0-2.46,2.36c-1.24,1.4-3.06,3.64-4.57,5.45s-2.7,3.21-3.55,4.12a11.93,11.93,0,0,1-1.78,1.6,7.18,7.18,0,0,1-1,.64,3.11,3.11,0,0,1-.77.29,2.06,2.06,0,0,1-1.68-.18,1.09,1.09,0,0,1-.4-.68,4.23,4.23,0,0,1,.14-1.87,12.68,12.68,0,0,1,.41-1.33,14.35,14.35,0,0,1,.79-1.72,22.16,22.16,0,0,1,1.3-2.18,28.11,28.11,0,0,1,3.76-4.55,11.47,11.47,0,0,1,1.46-1.22,4.38,4.38,0,0,1,.84-.49,1.25,1.25,0,0,1,.48-.11.71.71,0,0,1,.79.77,3.12,3.12,0,0,1,0,.51,8.66,8.66,0,0,0-.93.21,3.71,3.71,0,0,0-.61.26l-.41.25a2.21,2.21,0,0,0-.9,1.87,1.2,1.2,0,0,0,.41.67c.62.55,1.44.19,2.27-.79a6,6,0,0,0,.45-.61,6.15,6.15,0,0,0,.87-2,2.57,2.57,0,0,0-.92-2.86,2.16,2.16,0,0,0-1.32-.39,5.64,5.64,0,0,0-1,.11,8.09,8.09,0,0,0-1.16.37,6.91,6.91,0,0,0-1.78,1.11c-.88.71-2.18,1.9-3.2,2.77a20.88,20.88,0,0,1-2.42,1.81,10.69,10.69,0,0,1-1.72.87,10.54,10.54,0,0,1-1.54.49c.31-.67.59-1.36.8-1.95s.36-1.1.45-1.47a5.72,5.72,0,0,0,.17-.92,3.75,3.75,0,0,0-.18-1.52,2.51,2.51,0,0,0-.29-.54,2.16,2.16,0,0,0-.85-.72,3.56,3.56,0,0,0-2.43-.08,8.55,8.55,0,0,0-1.55.59,14.33,14.33,0,0,0-2,1.2,23.06,23.06,0,0,0-2.3,1.94,26.21,26.21,0,0,0-2.27,2.52,22.73,22.73,0,0,0-3.1,5.13,14.18,14.18,0,0,0-.71,2.07,12.29,12.29,0,0,0-.31,1.66,5.29,5.29,0,0,0,0,1.13,3.26,3.26,0,0,0,.18.84,2.43,2.43,0,0,0,.87,1.2,2.4,2.4,0,0,0,.7.34,3.17,3.17,0,0,0,.91.13,5,5,0,0,0,1.1-.14,6.25,6.25,0,0,0,1.23-.43,9.52,9.52,0,0,0,1.43-.85,16.61,16.61,0,0,0,1.78-1.52,26.75,26.75,0,0,0,2.42-2.75c1-1.24,2.13-2.89,3.23-4.57l2.71-.64c-.8,1.45-1.55,2.94-2,3.89a7.88,7.88,0,0,0-.65,1.79,5.54,5.54,0,0,0,.25,3.88,3.13,3.13,0,0,0,.74.88,3.27,3.27,0,0,0,1.06.57,4,4,0,0,0,1.36.2,6.6,6.6,0,0,0,3.77-1.21,13.61,13.61,0,0,0,1.83-1.41c.77-.69,1.74-1.65,2.67-2.67-.08.89-.13,1.77-.14,2.34a4.89,4.89,0,0,0,.08,1,3.29,3.29,0,0,0,.14.51,1.9,1.9,0,0,0,.18.35,1.47,1.47,0,0,0,.78.61,3.83,3.83,0,0,0,2.79-.34,8.75,8.75,0,0,0,1.27-.77,22,22,0,0,0,1.78-1.49,9.21,9.21,0,0,0,0,1,3.16,3.16,0,0,0,.06.56,1.3,1.3,0,0,0,.23.57,1.62,1.62,0,0,0,1.2.57,6.53,6.53,0,0,0,.67,0,5.6,5.6,0,0,0,3.05-1.08,12.64,12.64,0,0,0,1.94-1.61,22.47,22.47,0,0,0,2.26-2.68A37.24,37.24,0,0,0,300,396l-.73-.16C298.24,397.1,297.22,398.37,296.56,399.15ZM265.23,399a11.35,11.35,0,0,1-1.3,1.55c-.26.23-.47.41-.65.54a3.77,3.77,0,0,1-.5.28,1.5,1.5,0,0,1-2-.41,1.66,1.66,0,0,1-.17-1.05,4.65,4.65,0,0,1,.23-1,10.1,10.1,0,0,1,.69-1.62,22.58,22.58,0,0,1,1.43-2.38c.62-.9,1.37-1.88,2.17-2.82a12.54,12.54,0,0,0,1,1.26,3.57,3.57,0,0,0,.87.7,8,8,0,0,0,1.27.6C267.14,396.36,266,398,265.23,399Zm4.89-8.76a6.64,6.64,0,0,1-.11.72,4.29,4.29,0,0,1-.29.86c-.18.41-.46,1-.76,1.6a11.42,11.42,0,0,1-1.06-.44,3.86,3.86,0,0,1-.66-.41,2.08,2.08,0,0,1-.4-.37,2.46,2.46,0,0,1-.27-.33,2.16,2.16,0,0,1,.5-2.83,4.72,4.72,0,0,1,.48-.38,3.73,3.73,0,0,1,.55-.3c.58-.21,1.11-.43,1.61,0A2.35,2.35,0,0,1,270.12,390.23Zm20.21,8c-.32.49-.66,1-1,1.36a10.48,10.48,0,0,1-.76.89c-.22.23-.4.39-.55.52a2.07,2.07,0,0,1-.72.39,1,1,0,0,1-1-.29,1.19,1.19,0,0,1-.29-1,4.1,4.1,0,0,1,.15-.73,8.15,8.15,0,0,1,.42-1.15,17,17,0,0,1,.91-1.76,28,28,0,0,1,1.63-2.49c.65-.9,1.41-1.85,2.1-2.64s1.32-1.42,1.81-1.87a10.45,10.45,0,0,1,1.14-.91,2.55,2.55,0,0,1,.62-.33,1,1,0,0,1,.79,0c.43.28.24.79.2,1.06a2.58,2.58,0,0,1-.26.55c-.2.34-.56.92-.93,1.51Zm69.56,15.55-.33-1.2H359v1.76h.34v-1.38l.35,1.38h.36l.35-1.38v1.38h.34v-1.76h-.55Zm2.42-.07a1,1,0,0,0-.19-.14.58.58,0,0,0,.36-.17.48.48,0,0,0,.11-.32.44.44,0,0,0-.08-.28.41.41,0,0,0-.2-.17,1.4,1.4,0,0,0-.42-.05h-.77v1.76h.37v-.73h.07l.18,0a.26.26,0,0,1,.11.07,2.56,2.56,0,0,1,.19.26l.26.38h.44l-.22-.34A2.84,2.84,0,0,0,362.31,413.68Zm-.56-.38h-.26v-.45H362a.21.21,0,0,1,.14.07.2.2,0,0,1,.05.14.25.25,0,0,1,0,.13.25.25,0,0,1-.1.08A1.78,1.78,0,0,1,361.75,413.3Z" transform="translate(-242.84 -376.43)" fill="#231f20" fill-rule="evenodd"/></svg>