<svg id="Layer_1" data-name="Layer 1" xmlns="http://www.w3.org/2000/svg" viewBox="0 0 271.96 69.94"><title>icarus_mark_white</title><path d="M8.05,74.08V5.85H24V74.08Z" transform="translate(-8.05 -4.99)" fill="#fff"/><path d="M77.42,51.66C75,67.24,67.91,74.94,54.7,74.94c-17.29,0-23.28-13.5-23.28-35.45C31.42,20.86,37.31,5,55.08,5,70,5,75.42,13.74,76.75,27.61L62.12,29C61.17,22.2,59,18.58,55.27,18.58c-5,0-7.6,5.33-7.6,20.91,0,17.68,2.38,22,7.51,22,3.71,0,6.18-4.09,7.32-11.79Z" transform="translate(-8.05 -4.99)" fill="#fff"/><path d="M112.48,74.08l-2.57-14.73H97L94.61,74.08H78.46L93.09,5.85h20.72l15,68.23ZM99.17,45.86h8.46l-4.18-24.52h-.28Z" transform="translate(-8.05 -4.99)" fill="#fff"/><path d="M162.65,74.08l-7.41-25.56h-5.61V74.08H133.76V5.85h20.91c14.92,0,22.71,5.61,22.71,19.77,0,8.26-3.23,13.49-8.17,16.53L180,74.08Zm-9-38.39c4.09,0,7.51-1.62,7.51-8.46,0-8.36-4.37-8.08-7.12-8.08h-4.38V35.69Z" transform="translate(-8.05 -4.99)" fill="#fff"/><path d="M214.44,5.85h15.78V51.18c0,15.59-7,23.66-23.1,23.66-15.87,0-22.33-8.07-22.33-23.66V5.85h16V53.37c0,5.7,2.28,8.26,6.65,8.26s7-2.56,7-8.26Z" transform="translate(-8.05 -4.99)" fill="#fff"/><path d="M265.28,25.14c-1.14-4.18-3.23-7.51-7.32-7.51-3.13,0-5.13,1.81-5.13,4.66,0,12.07,27.18,10.45,27.18,33.26,0,12.36-8.65,19.39-22.05,19.39-13,0-19.48-5.8-21.67-18.53l14.64-2.76c.66,5.32,2.85,8.55,7.7,8.55,3.51,0,6.17-1.8,6.17-5.51,0-12.64-27.27-10.93-27.27-33.83,0-10.64,7.7-17.87,20.15-17.87,12.92,0,18.62,6.56,21.19,17.3Z" transform="translate(-8.05 -4.99)" fill="#fff"/></svg>