<svg id="Layer_1" data-name="Layer 1" xmlns="http://www.w3.org/2000/svg" viewBox="0 0 286.65 73.72"><title>Icarus</title><path d="M162.35,413.17V341.26h16.82v71.91Z" transform="translate(-162.35 -340.36)" fill="#f0f0f0"/><path d="M235.46,389.54c-2.6,16.42-10,24.53-23.94,24.53-18.22,0-24.54-14.22-24.54-37.35,0-19.64,6.22-36.36,24.94-36.36,15.73,0,21.44,9.21,22.84,23.83l-15.42,1.51c-1-7.21-3.31-11-7.21-11-5.31,0-8,5.61-8,22,0,18.62,2.51,23.23,7.91,23.23,3.91,0,6.52-4.31,7.72-12.42Z" transform="translate(-162.35 -340.36)" fill="#f0f0f0"/><path d="M272.42,413.17l-2.7-15.52H256.09l-2.5,15.52h-17L252,341.26h21.83l15.83,71.91Zm-14-29.74h8.91l-4.4-25.85h-.31Z" transform="translate(-162.35 -340.36)" fill="#f0f0f0"/><path d="M325.31,413.17l-7.82-26.94h-5.91v26.94H294.86V341.26h22c15.73,0,23.94,5.91,23.94,20.83,0,8.71-3.41,14.22-8.61,17.43l11.31,33.65Zm-9.52-40.46c4.31,0,7.91-1.7,7.91-8.92,0-8.81-4.6-8.51-7.51-8.51h-4.61v17.43Z" transform="translate(-162.35 -340.36)" fill="#f0f0f0"/><path d="M379.89,341.26h16.63V389c0,16.43-7.41,24.94-24.34,24.94-16.73,0-23.54-8.51-23.54-24.94V341.26h16.83v50.08c0,6,2.4,8.71,7,8.71s7.41-2.7,7.41-8.71Z" transform="translate(-162.35 -340.36)" fill="#f0f0f0"/><path d="M433.48,361.59c-1.21-4.41-3.41-7.91-7.72-7.91-3.3,0-5.4,1.9-5.4,4.91,0,12.72,28.64,11,28.64,35.05,0,13-9.11,20.43-23.24,20.43-13.72,0-20.53-6.11-22.83-19.53l15.42-2.9c.7,5.61,3,9,8.11,9,3.71,0,6.51-1.9,6.51-5.81,0-13.32-28.74-11.51-28.74-35.65,0-11.22,8.11-18.83,21.23-18.83,13.62,0,19.63,6.91,22.34,18.23Z" transform="translate(-162.35 -340.36)" fill="#f0f0f0"/></svg>