<svg id="Layer_1" data-name="Layer 1" xmlns="http://www.w3.org/2000/svg" viewBox="0 0 220.79 59.32"><title>icon_filtertext</title><path d="M783.69,412.88V368.39q12.4-3.39,25-6v9q-7.41,1.54-14.78,3.37V383q5.52-1.36,11.09-2.58v8.74q-5.57,1.21-11.09,2.58v18.46Q788.77,411.49,783.69,412.88Z" transform="translate(-783.69 -353.56)"/><path d="M824.52,403.88V359.39q5.19-.88,10.41-1.62v44.49Q829.71,403,824.52,403.88Z" transform="translate(-783.69 -353.56)"/><path d="M853.58,400V355.53q5.2-.51,10.42-.88v35.5q7.11-.51,14.24-.78v9Q865.9,398.83,853.58,400Z" transform="translate(-783.69 -353.56)"/><path d="M897.12,398.07V362.56q-4.23,0-8.44,0v-9q13.65-.18,27.31.54v9q-4.22-.21-8.43-.35v35.5Q902.34,398.11,897.12,398.07Z" transform="translate(-783.69 -353.56)"/><path d="M932.22,399.8V355.3q12.56,1.15,25,3.06v9q-7.31-1.12-14.65-2v8.31q5.5.63,11,1.43v8.74q-5.49-.8-11-1.44v9.48q7.62.9,15.21,2.06v9Q945.07,401,932.22,399.8Z" transform="translate(-783.69 -353.56)"/><path d="M993.37,410q-2.39-8.92-4.77-17.81l-3.62-.82v16.67q-5.13-1.14-10.28-2.15V361.4q6.78,1.34,13.53,2.89c9.62,2.25,14.6,7.33,14.6,16.54,0,5.4-2.07,8.24-5.24,9.41q3.45,11.29,6.89,22.64Q998.95,411.37,993.37,410Zm-5.81-26.41c2.63.6,4.83.08,4.83-4.38,0-5.45-2.81-5.94-4.59-6.35l-2.82-.64V383Z" transform="translate(-783.69 -353.56)"/></svg>