<svg id="Layer_1" data-name="Layer 1" xmlns="http://www.w3.org/2000/svg" viewBox="0 0 209.97 54"><title>mark_icarus_black</title><path d="M184.35,419.69V367h12.32v52.67Z" transform="translate(-184.35 -366.36)"/><path d="M237.9,402.38c-1.91,12-7.33,18-17.53,18-13.35,0-18-10.42-18-27.36,0-14.38,4.55-26.63,18.27-26.63,11.52,0,15.7,6.75,16.73,17.46l-11.3,1.1c-.73-5.28-2.42-8.07-5.28-8.07-3.89,0-5.87,4.11-5.87,16.14,0,13.64,1.83,17,5.79,17,2.87,0,4.77-3.16,5.65-9.1Z" transform="translate(-184.35 -366.36)"/><path d="M265,419.69l-2-11.37H253l-1.83,11.37H238.71L250,367h16l11.59,52.67ZM254.7,397.9h6.53L258,379h-.22Z" transform="translate(-184.35 -366.36)"/><path d="M303.71,419.69,298,400h-4.33v19.73H281.41V367h16.14c11.52,0,17.53,4.33,17.53,15.26,0,6.38-2.49,10.41-6.31,12.76l8.29,24.65Zm-7-29.64c3.15,0,5.8-1.24,5.8-6.53,0-6.45-3.38-6.23-5.51-6.23h-3.37v12.76Z" transform="translate(-184.35 -366.36)"/><path d="M343.69,367h12.18v35c0,12-5.43,18.27-17.83,18.27S320.8,414,320.8,402V367h12.33V403.7c0,4.4,1.76,6.38,5.13,6.38s5.43-2,5.43-6.38Z" transform="translate(-184.35 -366.36)"/><path d="M382.94,381.91c-.88-3.23-2.49-5.8-5.65-5.8-2.42,0-4,1.4-4,3.6,0,9.32,21,8.07,21,25.68,0,9.53-6.67,15-17,15-10.05,0-15-4.47-16.72-14.3l11.29-2.13c.52,4.11,2.21,6.6,5.95,6.6,2.71,0,4.77-1.39,4.77-4.25,0-9.76-21.06-8.44-21.06-26.12,0-8.22,5.94-13.79,15.55-13.79,10,0,14.38,5.06,16.36,13.35Z" transform="translate(-184.35 -366.36)"/></svg>