<svg id="Layer_1" data-name="Layer 1" xmlns="http://www.w3.org/2000/svg" viewBox="0 0 45.84 30.73"><title>rating_r_white_icon</title><path d="M911.4,550.13c.15-.94.21-1.27,1.88-1.27,2.42,0,3.66,1.3,3.66,4.36,0,3.93-1.58,4.6-5.54,4.63v-7.72Zm13.29,17.41a1.38,1.38,0,0,1-1.24-.58l-6.09-8.63c1.64-.51,4.76-1.45,4.76-5.17,0-5.09-6.42-5.33-8.54-5.33h-9.75v.76c1.73.12,2.66.18,2.66,2.78v13.38c0,2.45-.6,2.54-2.66,2.79v.75h10.23v-.75c-2-.28-2.66-.37-2.66-2.79v-5.93h.82l6.26,9.47h6.21v-.75Z" transform="translate(-891.86 -542.78)" fill="#fff" fill-rule="evenodd"/><path d="M893.62,544.54h42.32v27.22H893.62Zm44.08,29V542.78H891.86v30.74Z" transform="translate(-891.86 -542.78)" fill="#fff"/></svg>