<?xml version="1.0" encoding="UTF-8" standalone="no"?>
<!-- Created with Inkscape (http://www.inkscape.org/) -->

<svg
   xmlns:dc="http://purl.org/dc/elements/1.1/"
   xmlns:cc="http://creativecommons.org/ns#"
   xmlns:rdf="http://www.w3.org/1999/02/22-rdf-syntax-ns#"
   xmlns:svg="http://www.w3.org/2000/svg"
   xmlns="http://www.w3.org/2000/svg"
   xmlns:sodipodi="http://sodipodi.sourceforge.net/DTD/sodipodi-0.dtd"
   xmlns:inkscape="http://www.inkscape.org/namespaces/inkscape"
   width="79.375mm"
   height="79.375mm"
   viewBox="0 0 79.375 79.375"
   version="1.1"
   id="svg1948"
   inkscape:version="0.92.2 (5c3e80d, 2017-08-06)"
   sodipodi:docname="share.svg"
   opacity="0.9">
  <defs
     id="defs1942">
    <clipPath
       id="clip-path">
      <rect
         y="0"
         x="0"
         id="Rectangle_492"
         data-name="Rectangle 492"
         class="cls-1"
         width="18.959999"
         height="12" />
    </clipPath>
  </defs>
  <sodipodi:namedview
     id="base"
     pagecolor="#ffffff"
     bordercolor="#666666"
     borderopacity="1.0"
     inkscape:pageopacity="0.0"
     inkscape:pageshadow="2"
     inkscape:zoom="1.979899"
     inkscape:cx="52.092735"
     inkscape:cy="110.13421"
     inkscape:document-units="mm"
     inkscape:current-layer="layer1"
     showgrid="false"
     inkscape:window-width="1278"
     inkscape:window-height="1048"
     inkscape:window-x="-7"
     inkscape:window-y="0"
     inkscape:window-maximized="0" />
  <metadata
     id="metadata1945">
    <rdf:RDF>
      <cc:Work
         rdf:about="">
        <dc:format>image/svg+xml</dc:format>
        <dc:type
           rdf:resource="http://purl.org/dc/dcmitype/StillImage" />
        <dc:title />
      </cc:Work>
    </rdf:RDF>
  </metadata>
  <g
     inkscape:label="Layer 1"
     inkscape:groupmode="layer"
     id="layer1"
     transform="translate(104.62355,85.133926)">
    <rect
       id="Rectangle_530"
       data-name="Rectangle 530"
       class="cls-3"
       width="79.375"
       height="79.375"
       rx="6.6145835"
       x="-104.62355"
       y="-85.133926"
       style="fill:#1d1d1d;stroke-width:0.26458332" />
    <rect
       id="Rectangle_537"
       data-name="Rectangle 537"
       class="cls-14"
       width="79.375"
       height="79.375"
       rx="6.6145835"
       x="-104.62355"
       y="-85.133926"
       style="opacity:0.95;fill:#000000;fill-opacity:1;stroke-width:0.26458332" />
    <g
       id="g3296">
      <g
         style="fill:none;stroke:#c0ca34;stroke-width:2px"
         transform="matrix(0.26458333,0,0,0.26458333,-63.348549,-43.244566)"
         class="cls-16"
         data-name="Ellipse 268"
         id="Ellipse_268">
        <circle
           style="stroke:none"
           id="circle234"
           r="20"
           cy="20"
           cx="20"
           class="cls-34" />
        <circle
           style="fill:none"
           id="circle236"
           r="19"
           cy="20"
           cx="20"
           class="cls-35" />
      </g>
      <text
         y="-36.715179"
         x="-60.934227"
         style="font-weight:700;font-size:3.17499995px;font-family:Futura-Bold, Futura;fill:#c0ca34;stroke-width:0.26458332"
         class="cls-17"
         data-name="&lt;/&gt;"
         id="_">
        <tspan
           style="stroke-width:0.26458332"
           id="tspan239"
           y="-36.715179"
           x="-60.934227">&lt;/&gt;</tspan>
      </text>
    </g>
    <g
       id="Group_30"
       data-name="Group 30"
       transform="matrix(0.26458333,0,0,0.26458333,-314.4048,-108.94643)">
      <g
         id="Ellipse_20"
         data-name="Ellipse 20"
         class="cls-18"
         transform="translate(926.874,198.322)"
         style="fill:none;stroke:#187fb8;stroke-width:2px">
        <circle
           class="cls-34"
           cx="20"
           cy="20"
           r="20"
           id="circle242"
           style="stroke:none" />
        <circle
           class="cls-35"
           cx="20"
           cy="20"
           r="19"
           id="circle244"
           style="fill:none" />
      </g>
      <rect
         id="Rectangle_491"
         data-name="Rectangle 491"
         class="cls-19"
         width="3.615"
         height="11.447"
         transform="translate(938.559,213.985)"
         x="0"
         y="0"
         style="fill:#187fb8" />
      <path
         id="Path_11-2"
         data-name="Path 11"
         class="cls-19"
         d="m 41.881,33.5 c -2.058,0 -3.364,1.1 -3.615,1.908 V 33.6 H 34.2 c 0.05,0.954 0,11.447 0,11.447 h 4.067 v -6.175 a 2.786,2.786 0 0 1 0.1,-0.954 2.049,2.049 0 0 1 1.958,-1.406 c 1.406,0 2.058,1.054 2.058,2.611 v 5.924 H 46.5 V 38.671 C 46.45,35.157 44.442,33.5 41.881,33.5 Z"
         transform="translate(910.182,180.385)"
         inkscape:connector-curvature="0"
         style="fill:#187fb8" />
      <path
         id="Path_12-2"
         data-name="Path 12"
         class="cls-19"
         d="m 23.909,23 a 2.01,2.01 0 0 0 -2.209,2.008 1.984,1.984 0 0 0 2.159,1.958 v 0 A 2.01,2.01 0 0 0 26.068,24.958 1.984,1.984 0 0 0 23.909,23 Z"
         transform="translate(916.407,185.613)"
         inkscape:connector-curvature="0"
         style="fill:#187fb8" />
    </g>
    <g
       id="Group_32"
       data-name="Group 32"
       transform="matrix(0.26458333,0,0,0.26458333,-312.8173,-108.94643)">
      <g
         id="Ellipse_21"
         data-name="Ellipse 21"
         class="cls-20"
         transform="translate(972.874,198.322)"
         style="fill:none;stroke:#24a9e6;stroke-width:2px">
        <circle
           class="cls-34"
           cx="20"
           cy="20"
           r="20"
           id="circle251"
           style="stroke:none" />
        <circle
           class="cls-35"
           cx="20"
           cy="20"
           r="19"
           id="circle253"
           style="fill:none" />
      </g>
      <path
         id="Twitter_3_"
         class="cls-21"
         d="m 38.735,23.9 a 7.007,7.007 0 0 1 -2.468,0.957 3.883,3.883 0 0 0 -2.821,-1.257 3.935,3.935 0 0 0 -3.879,3.979 5.55,5.55 0 0 0 0.1,0.907 10.907,10.907 0 0 1 -7.959,-4.131 3.866,3.866 0 0 0 -0.5,2.015 4.2,4.2 0 0 0 1.71,3.33 3.581,3.581 0 0 1 -1.763,-0.5 v 0.05 a 3.9,3.9 0 0 0 3.123,3.879 3.248,3.248 0 0 1 -1.007,0.151 3.1,3.1 0 0 1 -0.705,-0.05 3.951,3.951 0 0 0 3.627,2.771 7.6,7.6 0 0 1 -4.786,1.699 5.475,5.475 0 0 1 -0.907,-0.05 10.849,10.849 0 0 0 5.944,1.763 c 7.1,0 11.032,-6.045 11.032,-11.284 v -0.5 a 7.493,7.493 0 0 0 1.914,-2.065 6.914,6.914 0 0 1 -2.216,0.6 4.958,4.958 0 0 0 1.561,-2.264 z"
         transform="translate(963.429,186.866)"
         inkscape:connector-curvature="0"
         style="fill:#24a9e6" />
    </g>
    <g
       id="Group_31"
       data-name="Group 31"
       transform="matrix(0.26458333,0,0,0.26458333,-315.9923,-108.94643)">
      <g
         id="Ellipse_19"
         data-name="Ellipse 19"
         class="cls-22"
         transform="translate(880.874,198.322)"
         style="fill:none;stroke:#43619c;stroke-width:2px">
        <circle
           class="cls-34"
           cx="20"
           cy="20"
           r="20"
           id="circle258"
           style="stroke:none" />
        <circle
           class="cls-35"
           cx="20"
           cy="20"
           r="19"
           id="circle260"
           style="fill:none" />
      </g>
      <path
         id="Facebook_2_"
         class="cls-23"
         d="M 6.532,19.409 V 10.575 H 9.518 L 9.953,7.154 H 6.532 V 4.977 c 0,-1 0.249,-1.68 1.68,-1.68 h 1.8 V 0.187 A 15.852,15.852 0 0 0 7.4,0 4.151,4.151 0 0 0 2.986,4.541 V 7.092 H 0 v 3.421 h 2.986 v 8.833 z"
         transform="translate(895.822,208.258)"
         inkscape:connector-curvature="0"
         style="fill:#43619c" />
    </g>
    <g
       id="g3280">
      <g
         style="fill:none;stroke:#32b679;stroke-width:2px"
         transform="matrix(0.26458333,0,0,0.26458333,-90.600632,-43.244566)"
         class="cls-24"
         data-name="Ellipse 266"
         id="Ellipse_266">
        <circle
           style="stroke:none"
           id="circle265"
           r="20"
           cy="20"
           cx="20"
           class="cls-34" />
        <circle
           style="fill:none"
           id="circle267"
           r="19"
           cy="20"
           cx="20"
           class="cls-35" />
      </g>
      <g
         transform="matrix(0.26458333,0,0,0.26458333,-87.323239,-39.506269)"
         data-name="Group 33"
         id="Group_33">
        <path
           style="fill:#32b679"
           inkscape:connector-curvature="0"
           d="M 1.386,3.823 C 1.572,3.958 2.116,4.377 3.044,5.079 3.972,5.781 4.665,6.308 5.16,6.687 5.209,6.728 5.333,6.822 5.506,6.957 5.679,7.092 5.828,7.2 5.939,7.295 6.05,7.39 6.199,7.471 6.36,7.579 A 2.476,2.476 0 0 0 6.818,7.822 1.2,1.2 0 0 0 7.226,7.903 H 7.238 A 1.2,1.2 0 0 0 7.646,7.822 2.139,2.139 0 0 0 8.1,7.578 C 8.261,7.47 8.409,7.378 8.521,7.294 8.633,7.21 8.781,7.094 8.954,6.956 9.127,6.818 9.239,6.726 9.3,6.686 9.795,6.308 11.057,5.362 13.074,3.822 a 3.913,3.913 0 0 0 0.978,-1.081 2.49,2.49 0 0 0 0.4,-1.324 1.411,1.411 0 0 0 -0.384,-1 1.226,1.226 0 0 0 -0.9,-0.419 H 1.287 A 1.1,1.1 0 0 0 0.334,0.459 1.882,1.882 0 0 0 0,1.607 a 2.177,2.177 0 0 0 0.445,1.2 4.1,4.1 0 0 0 0.94,1.013 z m 0,0"
           class="cls-25"
           data-name="Path 13"
           id="Path_13-2" />
        <path
           style="fill:#32b679"
           inkscape:connector-curvature="0"
           transform="translate(0,-25.515)"
           d="m 13.649,30.283 c -1.77,1.3 -3.106,2.31 -4.022,3.026 C 9.318,33.552 9.07,33.755 8.885,33.89 A 3.877,3.877 0 0 1 8.118,34.309 2.126,2.126 0 0 1 7.227,34.525 H 7.214 A 2.126,2.126 0 0 1 6.323,34.309 4.113,4.113 0 0 1 5.568,33.89 C 5.382,33.755 5.123,33.566 4.826,33.309 Q 3.726,32.438 0.817,30.27 A 4.215,4.215 0 0 1 0,29.5 v 7 a 1.411,1.411 0 0 0 0.384,1 1.212,1.212 0 0 0 0.916,0.419 h 11.867 a 1.185,1.185 0 0 0 0.916,-0.419 1.443,1.443 0 0 0 0.384,-1 v -6.986 a 5.152,5.152 0 0 1 -0.817,0.77 z m 0,0"
           class="cls-25"
           data-name="Path 14"
           id="Path_14-2" />
      </g>
    </g>
    <g
       id="g3289">
      <g
         style="fill:none;stroke:#7bb343;stroke-width:2px"
         transform="matrix(0.26458333,0,0,0.26458333,-77.106882,-43.244566)"
         class="cls-26"
         data-name="Ellipse 267"
         id="Ellipse_267">
        <circle
           style="stroke:none"
           id="circle273"
           r="20"
           cy="20"
           cx="20"
           class="cls-34" />
        <circle
           style="fill:none"
           id="circle275"
           r="19"
           cy="20"
           cx="20"
           class="cls-35" />
      </g>
      <g
         transform="matrix(0.26458333,0,0,0.26458333,-74.316322,-39.625596)"
         data-name="Group 34"
         id="Group_34">
        <g
           data-name="Group 21"
           id="Group_21">
          <g
             clip-path="url(#clip-path)"
             class="cls-27"
             data-name="Group 20"
             id="Group_20">
            <path
               style="fill:#7bb343"
               inkscape:connector-curvature="0"
               d="m 5.76,6.72 h 7.68 V 4.8 H 5.76 Z M 1.8,5.76 A 4,4 0 0 1 5.76,1.8 H 8.64 V 0 H 5.76 A 5.84,5.84 0 0 0 0,5.76 5.84,5.84 0 0 0 5.76,11.52 H 8.64 V 9.72 H 5.76 A 4,4 0 0 1 1.8,5.76 Z M 13.44,0 h -2.88 v 1.8 h 2.88 a 3.918,3.918 0 0 1 3.96,3.96 3.918,3.918 0 0 1 -3.96,3.96 h -2.88 v 1.8 h 2.88 A 5.84,5.84 0 0 0 19.2,5.76 5.84,5.84 0 0 0 13.44,0 Z m 0,0"
               class="cls-1"
               data-name="Path 15"
               id="Path_15-2" />
          </g>
        </g>
      </g>
    </g>
    <g
       id="g3303">
      <g
         style="fill:none;stroke:#e4c440;stroke-width:2px"
         transform="matrix(0.26458333,0,0,0.26458333,-49.590216,-43.244566)"
         class="cls-15"
         data-name="Ellipse 269"
         id="Ellipse_269">
        <circle
           style="stroke:none"
           id="circle229"
           r="20"
           cy="20"
           cx="20"
           class="cls-34" />
        <circle
           style="fill:none"
           id="circle231"
           r="19"
           cy="20"
           cx="20"
           class="cls-35" />
      </g>
      <g
         transform="matrix(0.26458333,0,0,0.26458333,-46.21572,-38.940589)"
         data-name="Group 35"
         id="Group_35">
        <path
           style="fill:#e4c440"
           inkscape:connector-curvature="0"
           d="M 13.661,1.006 12.986,0.331 a 1.165,1.165 0 0 0 -1.627,0 L 7,4.7 2.633,0.331 A 1.113,1.113 0 0 0 1.82,0 1.159,1.159 0 0 0 1.007,0.331 L 0.345,1.006 A 1.1,1.1 0 0 0 0,1.82 1.074,1.074 0 0 0 0.345,2.633 L 6.19,8.478 A 1.053,1.053 0 0 0 7,8.823 1.074,1.074 0 0 0 7.813,8.478 L 13.658,2.633 A 1.113,1.113 0 0 0 13.989,1.82 1.159,1.159 0 0 0 13.658,1.007 Z m 0,0"
           class="cls-28"
           data-name="Path 16"
           id="Path_16-2" />
      </g>
    </g>
    <g
       id="share_button-2"
       data-name="share button"
       transform="matrix(0.26458333,0,0,0.26458333,-96.818341,-123.92185)">
      <path
         id="Path_152-2"
         data-name="Path 152"
         class="cls-29"
         d="m 102.1,178.4 a 1.921,1.921 0 0 0 -1.9,-1.4 c -0.9,0 -1.5,0.4 -1.5,1.2 0,2 5.3,0.9 5.3,4.6 0,2 -1.5,3.1 -3.7,3.1 a 3.578,3.578 0 0 1 -3.8,-2.7 l 1.8,-0.6 a 1.979,1.979 0 0 0 2.1,1.7 c 1,0 1.7,-0.5 1.7,-1.3 0,-2.2 -5.3,-1 -5.3,-4.7 0,-1.7 1.4,-2.8 3.3,-2.8 1.8,0 3,0.7 3.5,2.3 z"
         inkscape:connector-curvature="0"
         style="fill:#ffffff" />
      <path
         id="Path_153-2"
         data-name="Path 153"
         class="cls-29"
         d="m 112.4,185.7 v -4.3 h -4.1 v 4.3 h -1.9 v -10.1 h 1.9 v 4 h 4.1 v -4 h 1.9 v 10.1 z"
         inkscape:connector-curvature="0"
         style="fill:#ffffff" />
      <path
         id="Path_154-2"
         data-name="Path 154"
         class="cls-29"
         d="m 123,185.7 -0.7,-2.6 H 119 l -0.7,2.6 h -1.9 l 3,-10.1 h 2.6 l 3,10.1 z m -3.5,-4.3 h 2.4 l -1.2,-4.2 v 0 z"
         inkscape:connector-curvature="0"
         style="fill:#ffffff" />
      <path
         id="Path_155-2"
         data-name="Path 155"
         class="cls-29"
         d="m 132.7,185.7 -1.8,-4 H 129 v 4 h -1.9 v -10.1 h 3.4 c 2.7,0 3.9,1 3.9,2.9 a 2.617,2.617 0 0 1 -1.8,2.6 l 2.2,4.6 z m -2.2,-5.6 c 0.7,0 1.9,-0.1 1.9,-1.4 0,-1.2 -1,-1.4 -1.8,-1.4 H 129 v 2.8 z"
         inkscape:connector-curvature="0"
         style="fill:#ffffff" />
      <path
         id="Path_156-2"
         data-name="Path 156"
         class="cls-29"
         d="m 137,185.7 v -10.1 h 6.5 v 1.6 h -4.6 v 2.5 h 3.3 v 1.6 h -3.3 v 2.8 h 4.7 v 1.6 z"
         inkscape:connector-curvature="0"
         style="fill:#ffffff" />
    </g>
    <path
       id="times-solid-2"
       data-name="times-solid"
       class="cls-12"
       d="m -64.376984,-15.019346 0.838464,-0.839787 a 0.26458333,0.26458333 0 0 0 0,-0.372798 l -0.185208,-0.185208 a 0.26458333,0.26458333 0 0 0 -0.372798,0 l -0.839523,0.838729 -0.839788,-0.838465 a 0.26458333,0.26458333 0 0 0 -0.372797,0 l -0.185209,0.185209 a 0.26458333,0.26458333 0 0 0 0,0.372797 l 0.838465,0.838465 -0.8382,0.839523 a 0.26458333,0.26458333 0 0 0 0,0.372798 l 0.185208,0.185208 a 0.26458333,0.26458333 0 0 0 0.372798,0 l 0.838465,-0.838464 0.838464,0.838464 a 0.26458333,0.26458333 0 0 0 0.372798,0 l 0.185208,-0.185208 a 0.26458333,0.26458333 0 0 0 0,-0.372798 z"
       inkscape:connector-curvature="0"
       style="fill:#b5b5b5;stroke-width:0.26458332" />
    <text
       id="Link_copied."
       data-name="Link copied."
       class="cls-30"
       style="font-weight:700;font-size:3.70416665px;font-family:ProximaNova-Bold, 'Proxima Nova';fill:#7bb343;stroke-width:0.26458332"
       x="-64.93605"
       y="-24.27976">
      <tspan
         x="-75.022499"
         y="-24.27976"
         id="tspan291"
         style="stroke-width:0.26458332">Link copied.</tspan>
    </text>
  </g>
</svg>
