<svg id="Layer_1" data-name="Layer 1" xmlns="http://www.w3.org/2000/svg" viewBox="0 0 81 54"><title>genre_arts</title><path d="M96.26,110.94H84.16l-2.25,5.6H72.76l12.8-33.35H95l12.55,33.35H98.31Zm-2.3-6.6-3.75-10.8-3.65,10.8Z" transform="translate(-59.66 -72.87)"/><path d="M110.66,94.19h8v3.65a7.21,7.21,0,0,1,3.15-3.1,8.73,8.73,0,0,1,4.15-.9c.2,0,.55,0,1.6.1v7.55a7.06,7.06,0,0,0-3.45-.8,5.24,5.24,0,0,0-3.65,1.2c-1.7,1.55-1.8,3.9-1.8,5.1v9.55h-8Z" transform="translate(-59.66 -72.87)"/><path d="M140.66,126.87h-81v-54h81Zm-79-2h77v-50h-77Z" transform="translate(-59.66 -72.87)"/></svg>