<svg id="Layer_1" data-name="Layer 1" xmlns="http://www.w3.org/2000/svg" viewBox="0 0 81 54"><title>genre_drama</title><path d="M173.75,215.21v-30H184c3,0,8.06.4,11.93,4.13a14.66,14.66,0,0,1,4.18,10.94c0,4-1,7.47-3.92,10.39a16.25,16.25,0,0,1-11.51,4.55Zm7.78-6.62h1.58c1.89,0,4.54-.18,6.57-2.16a8.16,8.16,0,0,0,2.29-6.16,8.94,8.94,0,0,0-2.34-6.57c-1.84-1.71-4.27-1.89-6.21-1.89h-1.89Z" transform="translate(-159.93 -173.54)"/><path d="M219.91,195.09h7.2v20.12h-7.2V213a7.48,7.48,0,0,1-6.25,2.88,9.63,9.63,0,0,1-7.24-3.19,10.14,10.14,0,0,1-2.88-7.38,11.14,11.14,0,0,1,3.1-8.06,10.36,10.36,0,0,1,7.25-2.83,7.91,7.91,0,0,1,6,2.61Zm-7.55,6.75a4.73,4.73,0,0,0-1.45,3.29,4.62,4.62,0,0,0,1.4,3.28,5,5,0,0,0,3.24,1.35,4.61,4.61,0,0,0,3.24-1.39,4.37,4.37,0,0,0,1.35-3.24,4.44,4.44,0,0,0-1.4-3.29,4.56,4.56,0,0,0-6.38,0Z" transform="translate(-159.93 -173.54)"/><path d="M240.93,227.54h-81v-54h81Zm-79-2h77v-50h-77Z" transform="translate(-159.93 -173.54)"/></svg>