<svg id="Layer_1" data-name="Layer 1" xmlns="http://www.w3.org/2000/svg" viewBox="0 0 81 54"><title>genre_mystery</title><path d="M67.86,116.17l5.65-33.35h8.55l6.75,17.8L96,82.82h8.65l5,33.35H101L98.52,97l-8.06,19.2H87L79.31,97l-2.85,19.2Z" transform="translate(-59.66 -72.87)"/><path d="M115.81,108.77a11.45,11.45,0,0,0,3.2,1.65,10.41,10.41,0,0,0,3.1.55,3.39,3.39,0,0,0,2-.6,1.28,1.28,0,0,0,.4-1.05,1.19,1.19,0,0,0-.4-1,5,5,0,0,0-2.1-.8L120,107a7.19,7.19,0,0,1-3.9-2,5.41,5.41,0,0,1-1.45-3.85,8,8,0,0,1,2.1-5.45c1.7-1.75,4.7-2.7,8-2.7a18.45,18.45,0,0,1,7.15,1.45l-2.7,5.1a11.07,11.07,0,0,0-4.2-1.1,3.38,3.38,0,0,0-1.85.45,1.2,1.2,0,0,0-.7,1.1,1.3,1.3,0,0,0,1,1.25c.75.3,1.4.3,2.65.65l1.45.4a9.44,9.44,0,0,1,3.3,1.75,6.32,6.32,0,0,1,1.7,4.45,7.47,7.47,0,0,1-2.25,5.55c-2.6,2.6-6.4,2.8-8.25,2.8a16.49,16.49,0,0,1-9-2.6Z" transform="translate(-59.66 -72.87)"/><path d="M140.66,126.87h-81v-54h81Zm-79-2h77v-50h-77Z" transform="translate(-59.66 -72.87)"/></svg>