<svg id="Layer_1" data-name="Layer 1" xmlns="http://www.w3.org/2000/svg" viewBox="0 0 81 54"><title>genre_sciencefiction</title><path d="M183.94,207.85a10.51,10.51,0,0,0,6.89,3.06,3.94,3.94,0,0,0,3-1,2.7,2.7,0,0,0,.77-1.89,2.34,2.34,0,0,0-.86-1.8c-.76-.68-1.93-1-3.87-1.58l-2-.63a9.78,9.78,0,0,1-4.32-2.43,7.55,7.55,0,0,1-1.71-5.31,9.81,9.81,0,0,1,2.74-7.24,10.59,10.59,0,0,1,7.7-2.84,21.17,21.17,0,0,1,9.27,2.43l-3.11,6.08a7.9,7.9,0,0,0-5.13-2,3.73,3.73,0,0,0-2.56.9,2.24,2.24,0,0,0-.77,1.62,2,2,0,0,0,.41,1.35,4.88,4.88,0,0,0,2.61,1.35l2.38.72a11.55,11.55,0,0,1,5.45,3,7.09,7.09,0,0,1,1.93,5.36,10.17,10.17,0,0,1-2.83,7.56c-2.57,2.56-5.67,3.06-8.87,3.06a16,16,0,0,1-5.89-1,20.93,20.93,0,0,1-4.55-2.39Z" transform="translate(-159.71 -173.54)"/><path d="M214.72,202.63v14.22h-7.2V202.63H205v-5.89h2.51v-3.38a10.34,10.34,0,0,1,1.85-6.61,8.35,8.35,0,0,1,7-3.2,9.09,9.09,0,0,1,3.47.68v6.21a4.5,4.5,0,0,0-2.25-.68,2.61,2.61,0,0,0-2,.77,5.33,5.33,0,0,0-.81,3.37v2.84h5v5.89Z" transform="translate(-159.71 -173.54)"/><path d="M240.71,227.54h-81v-54h81Zm-79-2h77v-50h-77Z" transform="translate(-159.71 -173.54)"/></svg>