<?xml version="1.0" encoding="UTF-8" standalone="no"?>
<!-- Created with Inkscape (http://www.inkscape.org/) -->

<svg
   xmlns:dc="http://purl.org/dc/elements/1.1/"
   xmlns:cc="http://creativecommons.org/ns#"
   xmlns:rdf="http://www.w3.org/1999/02/22-rdf-syntax-ns#"
   xmlns:svg="http://www.w3.org/2000/svg"
   xmlns="http://www.w3.org/2000/svg"
   xmlns:xlink="http://www.w3.org/1999/xlink"
   xmlns:sodipodi="http://sodipodi.sourceforge.net/DTD/sodipodi-0.dtd"
   xmlns:inkscape="http://www.inkscape.org/namespaces/inkscape"
   width="186.53601mm"
   height="79.375mm"
   viewBox="0 0 186.53601 79.375"
   version="1.1"
   id="svg877"
   sodipodi:docname="poster.svg"
   inkscape:version="0.92.2 (5c3e80d, 2017-08-06)">
  <defs
     id="defs871">
    <pattern
       id="pattern"
       width="1"
       height="1"
       viewBox="166.714 98.449 401.64 170.906">
      <image
         id="image4"
         height="300"
         width="723.675"
         preserveAspectRatio="xMidYMid slice"
         xlink:href="C:\WINDOWS\System32\Poster-image.jpg" />
    </pattern>
  </defs>
  <sodipodi:namedview
     id="base"
     pagecolor="#ffffff"
     bordercolor="#666666"
     borderopacity="1.0"
     inkscape:pageopacity="0.0"
     inkscape:pageshadow="2"
     inkscape:zoom="0.98994949"
     inkscape:cx="256.61746"
     inkscape:cy="-11.658977"
     inkscape:document-units="mm"
     inkscape:current-layer="layer1"
     showgrid="false"
     inkscape:window-width="1278"
     inkscape:window-height="1048"
     inkscape:window-x="1"
     inkscape:window-y="0"
     inkscape:window-maximized="0"
     inkscape:pagecheckerboard="true" />
  <metadata
     id="metadata874">
    <rdf:RDF>
      <cc:Work
         rdf:about="">
        <dc:format>image/svg+xml</dc:format>
        <dc:type
           rdf:resource="http://purl.org/dc/dcmitype/StillImage" />
        <dc:title></dc:title>
      </cc:Work>
    </rdf:RDF>
  </metadata>
  <g
     inkscape:label="Layer 1"
     inkscape:groupmode="layer"
     id="layer1"
     transform="translate(120.10431,-109.14583)">
    <g
       transform="matrix(0.26458333,0,0,0.26458333,-158.99806,16.541668)"
       data-name="Group 72"
       id="Group_72">
      <path
         style="fill:#ffffff"
         inkscape:connector-curvature="0"
         transform="translate(-881,1696.672)"
         d="m 1107.843,-1222.245 h -39.568 a 2.278,2.278 0 0 1 -2.276,-2.275 v -10.2 a 2.278,2.278 0 0 1 2.276,-2.275 h 39.568 a 2.278,2.278 0 0 1 2.276,2.275 v 10.2 a 2.38,2.38 0 0 1 -2.276,2.275 z m -36.118,-5.873 v 0 l -1.321,0.441 a 2.63,2.63 0 0 0 2.79,1.982 c 1.675,0 2.715,-0.872 2.715,-2.276 0,-1.565 -1.268,-1.953 -2.387,-2.295 -0.807,-0.247 -1.5,-0.46 -1.5,-1.082 0,-0.56 0.4,-0.881 1.1,-0.881 a 1.408,1.408 0 0 1 1.395,1.028 l 1.1,-0.44 a 2.366,2.366 0 0 0 -2.569,-1.688 2.162,2.162 0 0 0 -2.422,2.056 c 0,1.534 1.233,1.918 2.32,2.257 0.843,0.263 1.57,0.49 1.57,1.193 0,0.571 -0.5,0.955 -1.248,0.955 a 1.45,1.45 0 0 1 -1.542,-1.248 z m 15.49,-5.138 -2.2,7.414 h 1.394 l 0.514,-1.908 h 2.423 l 0.514,1.909 h 1.468 l -2.2,-7.414 z m 12.92,0 v 7.414 h 4.846 v -1.174 h -3.451 v -2.056 h 2.423 v -1.174 h -2.423 v -1.835 h 3.377 v -1.174 z m -7.268,0 v 7.414 h 1.4 v -2.936 h 1.4 l 1.321,2.937 h 1.542 l -1.615,-3.377 a 1.933,1.933 0 0 0 1.321,-1.909 c 0,-1.432 -0.937,-2.129 -2.863,-2.129 z m -13.8,4.257 h 3.01 v 3.157 h 1.4 v -7.414 h -1.4 v 2.936 h -3.01 v -2.936 h -1.4 v 7.414 h 1.4 V -1229 Z m 9.984,0 h -1.762 l 0.881,-3.083 0.881,3.081 z m 6.313,-0.954 h -1.1 v -2.056 h 1.174 c 0.877,0 1.321,0.346 1.321,1.028 -10e-4,1.028 -1.051,1.028 -1.396,1.028 z"
         class="cls-3"
         data-name="Subtraction 3"
         id="Subtraction_3" />
      <g
         id="g6071">
        <circle
           id="Ellipse_274"
           data-name="Ellipse 274"
           class="cls-3"
           cx="30"
           cy="30"
           r="30"
           transform="translate(177,380)"
           style="fill:#ffffff" />
        <path
           id="Path_185"
           data-name="Path 185"
           d="M 20.72,10.487 3.495,0.335 A 2.315,2.315 0 0 0 0,2.332 v 20.3 a 2.313,2.313 0 0 0 3.495,2 L 20.637,14.481 a 2.305,2.305 0 0 0 0.083,-3.994 z"
           transform="translate(198.76,397.985)"
           inkscape:connector-curvature="0" />
      </g>
    </g>
  </g>
</svg>
