<svg id="Layer_1" data-name="Layer 1" xmlns="http://www.w3.org/2000/svg" viewBox="0 0 219.02 58.91"><title>icarus_black_mark</title><path d="M38,157.4H22.88l7-56.87H45Z" transform="translate(-22.88 -99.51)"/><path d="M79.32,117.16c-1.88-2.13-3.58-3.41-6.57-3.41-9.12,0-11.93,11.76-11.93,19,0,5.37,1.79,10.83,8.1,10.83,3.24,0,5.88-1.62,8.27-3.67l-2.9,16.46a22.09,22.09,0,0,1-9.3,2c-13.55,0-19.78-10.83-19.78-23.19,0-17,9.3-35.72,28.57-35.72a16.08,16.08,0,0,1,7.5,1.45Z" transform="translate(-22.88 -99.51)"/><path d="M105,157.4l-.26-7.25H94.57l-2.13,7.25H76.75l20.47-56.87h18.5l4.86,56.87ZM104.29,124c0-3.24.17-6.57.26-9.81-.68,2.65-1.19,5.37-2,8-1.54,5.28-2.9,10.57-4.52,15.86h6.39c-.08-2.22-.17-4.44-.17-6.66Z" transform="translate(-22.88 -99.51)"/><path d="M145.64,100.53c11.17,0,19.61,3.84,19.61,16.29,0,7.75-3.24,13.89-10.57,17L163,157.4H146.67c-1.37-5.71-2.9-11.34-4.18-17.05-.51-2.22-.94-4.35-1.45-6.57-.68,7.93-1.71,15.77-2.73,23.62H123.22l7-56.87Zm-2.55,26.35c4.17,0,7.07-4.18,7.07-8.1,0-4.27-2.56-5.46-6.39-5.46l-1.71,13.56Z" transform="translate(-22.88 -99.51)"/><path d="M204.56,140.77c-.68,5.8-2.56,9.55-7.25,13.22a20.44,20.44,0,0,1-13.21,4.43c-10,0-17.48-5.11-17.48-15.69a33.13,33.13,0,0,1,.25-4.09l4.69-38.11h15.09l-4.52,36.75c-.08.94-.17,1.87-.17,2.81,0,2.22.86,3.92,3.33,3.92,3.75,0,4.26-3.83,4.6-6.73l4.52-36.75H209.5Z" transform="translate(-22.88 -99.51)"/><path d="M239.77,119.8c-1.54-3.07-4.44-6.22-8.1-6.22-2,0-4.52,1.53-4.52,3.75,0,5,11.94,7.41,11.94,19.1s-8.53,22-20.64,22A26.49,26.49,0,0,1,207.63,156l2.21-17.82c2,3.24,4.86,6.22,8.87,6.22,2.47,0,4.94-1.53,4.94-4.26,0-5.11-11.76-7.42-11.76-19.69,0-10.49,8.61-20.89,19.44-20.89a21.87,21.87,0,0,1,10.57,2.9Z" transform="translate(-22.88 -99.51)"/></svg>