<svg id="Layer_1" data-name="Layer 1" xmlns="http://www.w3.org/2000/svg" viewBox="0 0 492.89 492.89"><title>icon_playbutton</title><path d="M344.18,577.38a246.46,246.46,0,1,1,174.26-72.19A244.81,244.81,0,0,1,344.18,577.38Zm0-448.89c-111.63,0-202.45,90.81-202.45,202.44s90.82,202.45,202.45,202.45,202.44-90.82,202.44-202.45S455.81,128.49,344.18,128.49Z" transform="translate(-97.73 -84.49)" fill="#fff"/><path d="M435.91,317.92l-130.4-79.3a17.88,17.88,0,0,0-26.5,15.6v154.1a17.89,17.89,0,0,0,26.5,15.6l130.4-74.8A18,18,0,0,0,435.91,317.92Z" transform="translate(-97.73 -84.49)" fill="#fff"/></svg>