<svg id="Layer_1" data-name="Layer 1" xmlns="http://www.w3.org/2000/svg" viewBox="0 0 82 18"><title>icon_quickplay</title><rect width="82" height="18" rx="9"/><path d="M80.93,67a3.48,3.48,0,1,1,6.94,0V68a3.66,3.66,0,0,1-1.09,2.81l1,1.47H86.12l-.56-.79a3.88,3.88,0,0,1-1.17.18A3.33,3.33,0,0,1,80.93,68Zm1.66,1c0,1.52.74,2.27,1.76,2.3a1.5,1.5,0,0,0,.44-.07L83.93,69h1.53l.36.45A2.49,2.49,0,0,0,86.21,68V67c0-1.48-.77-2.22-1.82-2.22s-1.8.74-1.8,2.22Z" transform="translate(-64 -59)" fill="#fff"/><path d="M95.1,71.51H93.49V70.46h-.08a1.83,1.83,0,0,1-1.83,1.14,1.9,1.9,0,0,1-2.08-2.14V65.27h1.65V69c0,.93.54,1.16,1.08,1.16A1.18,1.18,0,0,0,93.45,69V65.27H95.1Z" transform="translate(-64 -59)" fill="#fff"/><path d="M97.81,62.55a.92.92,0,0,1,1,.91,1,1,0,1,1-1-.91ZM97,65.27h1.65v6.24H97Z" transform="translate(-64 -59)" fill="#fff"/><path d="M100.24,68a2.65,2.65,0,0,1,2.82-2.86,2.33,2.33,0,0,1,2.6,2.27h-1.51a1,1,0,0,0-1.05-.93c-.76,0-1.2.6-1.2,1.53v.66c0,1,.45,1.58,1.2,1.58a1,1,0,0,0,1.08-.88h1.51c0,1.43-1.06,2.23-2.64,2.23a2.63,2.63,0,0,1-2.81-2.91Z" transform="translate(-64 -59)" fill="#fff"/><path d="M108.78,71.51h-1.65V63h1.65V67.8h.07l2-2.53h1.85L110.46,68l2.39,3.55h-1.92l-1.73-2.59-.42.46Z" transform="translate(-64 -59)" fill="#fff"/><path d="M120,63.51a2.71,2.71,0,1,1,0,5.42h-1.54v2.58h-1.7v-8Zm-1.57,4.07h.9c1.05,0,1.68-.34,1.68-1.35a1.23,1.23,0,0,0-1.36-1.34h-1.22Z" transform="translate(-64 -59)" fill="#fff"/><path d="M124.07,63h1.65v8.53h-1.65Z" transform="translate(-64 -59)" fill="#fff"/><path d="M127.24,69.7c0-1.13.78-1.87,2.22-1.87H131v-.54c0-.56-.38-.84-1-.84s-.89.27-1,.65h-1.55c.06-1,.76-1.93,2.54-1.93,1.42,0,2.58.57,2.58,2.17v4.17H131v-.78H131a1.77,1.77,0,0,1-1.67.87A1.86,1.86,0,0,1,127.24,69.7Zm3.72-.26v-.63h-1.12c-.65,0-1,.32-1,.76s.47.8,1,.8A1,1,0,0,0,131,69.44Z" transform="translate(-64 -59)" fill="#fff"/><path d="M137.84,71.27l-.16.42a2.56,2.56,0,0,1-2.68,2,5.79,5.79,0,0,1-.89-.07V72.43a3.55,3.55,0,0,0,.52,0c.77,0,1-.29,1.12-.79l.05-.18-2.13-6.23h1.82l1.25,4.8h.07l1.29-4.8h1.75S137.86,71.19,137.84,71.27Z" transform="translate(-64 -59)" fill="#fff"/><path d="M76.54,66.2H74.33l.81-2.48a.46.46,0,0,0-.44-.58H72.57a.45.45,0,0,0-.45.4l-1.25,4.6a.46.46,0,0,0,.46.52H73.6l-.88,3.73a.45.45,0,0,0,.44.56.44.44,0,0,0,.4-.23l3.38-5.83A.46.46,0,0,0,76.54,66.2Z" transform="translate(-64 -59)" fill="#fff"/></svg>