<svg id="Layer_1" data-name="Layer 1" xmlns="http://www.w3.org/2000/svg" viewBox="0 0 234.93 30.73"><title>icon_pg</title><path d="M314.83,391.8l.21,9.56c0,1.45.83,2.07,2.7,2.28,2.91.41,4.57-.21,4.77-1.87a3.2,3.2,0,0,0-2.07-3.32,1.88,1.88,0,0,1-1.25-1.25c-.21-.83.42-1.24,1.66-1.24h7.69c1.24,0,1.87.41,1.87,1a1.25,1.25,0,0,1-.63,1.25l-1.24.41c-.42.21-.63,1-.63,2.08l-.2,3.12c-.62,1-1.87,1.66-3.95,1.87l-6.44.62-5-.83c-2.29-1-3.53-3.12-3.53-6.44a66.46,66.46,0,0,1,.41-9.35c.63-1.87,2.49-3.11,5.82-3.73l4.77-.21,6,.62c1,.21,1.66,1,1.87,2.49l-.21,2.49c0,1.25-.62,1.87-2.08,1.87l-1.87-.2a2.63,2.63,0,0,1-1-1.87c-.41-2.29-1.66-3.12-3.73-2.91-2.7,0-3.95,1.25-3.95,3.53" transform="translate(-278.28 -380.78)" fill="#fff" fill-rule="evenodd"/><path d="M301.33,391.38c0,3.12-.83,4.58-2.49,4.58l-2.5.2c-.82,0-1.24-.41-1.24-1v-8.3h-3.53l-1.87-.21c-3.74,0-4.57.83-2.7,2.28l1.45.42A2.15,2.15,0,0,1,289.7,391a69.45,69.45,0,0,1,0,9.76l-.62,1.87c-.21.62-.63,1-1.67,1-.82.21-1.24.62-1.24,1.25s.21.83.83.83h11c.83,0,1.25-.42,1.25-1a1,1,0,0,0-1.05-1c-1.87,0-2.9-.83-3.11-2.28a4.74,4.74,0,0,1,0-2.5,3.37,3.37,0,0,1,2.29-.62l5.39-.42c2.7-.2,4.16-1.86,4.16-4.77,0-2.29-.21-3.74-.62-4.36-.84-1.46-2.91-2.29-6-2.08l-5.19.21v2.49a4.58,4.58,0,0,1,2.91-.62c2.07,0,3.11.83,3.32,2.69" transform="translate(-278.28 -380.78)" fill="#fff" fill-rule="evenodd"/><path d="M348.43,405.65H345.5V386.47h4.6c2.39,0,3.56,1.18,3.56,3.56v5.1c0,2.38-1.17,3.56-3.56,3.56h-1.67ZM349.64,389h-1.21v7.07h1.21c.74,0,1.09-.35,1.09-1.12v-4.82C350.73,389.4,350.38,389,349.64,389Z" transform="translate(-278.28 -380.78)" fill="#fff"/><path d="M364,405.65h-2.91l-.38-3h-3l-.36,3h-2.71l2.74-19.21h3.89ZM358,400h2.38l-1.2-9.7Z" transform="translate(-278.28 -380.78)" fill="#fff"/><path d="M374.27,399.13v6.52h-2.93v-6.47c0-.85-.38-1.23-1.23-1.23h-1.32v7.7h-2.93V386.47h4.82c2.39,0,3.57,1.18,3.57,3.56v3.62c0,1.7-.61,2.52-1.68,3C373.78,396.94,374.27,397.68,374.27,399.13Zm-4-10.06h-1.43v6.33h1.32c.82,0,1.2-.38,1.2-1.18v-4.05A1,1,0,0,0,370.22,389.07Z" transform="translate(-278.28 -380.78)" fill="#fff"/><path d="M383.18,386.47v2.66h-3.59v5.42H383v2.66h-3.45V403h3.65v2.66h-6.58V386.47Z" transform="translate(-278.28 -380.78)" fill="#fff"/><path d="M391.07,405.65l-3-12.91,0,3.37v9.54h-2.63V386.47h3.43l2.74,11.84,0-3.21v-8.63h2.63v19.18Z" transform="translate(-278.28 -380.78)" fill="#fff"/><path d="M398.72,405.65V389.13h-2.63v-2.66h8.19v2.66h-2.63v16.52Z" transform="translate(-278.28 -380.78)" fill="#fff"/><path d="M413.88,405.65H411l-.38-3h-3l-.36,3h-2.71l2.74-19.21h3.89Zm-6-5.62h2.39l-1.21-9.7Z" transform="translate(-278.28 -380.78)" fill="#fff"/><path d="M418.7,386.47V403h3.23v2.66h-6.16V386.47Z" transform="translate(-278.28 -380.78)" fill="#fff"/><path d="M432.37,397.7v-2.52h4.39v7.07c0,2.39-1.18,3.57-3.56,3.57h-1.56c-2.39,0-3.57-1.18-3.57-3.57V389.87c0-2.39,1.18-3.57,3.57-3.57h1.53c2.38,0,3.53,1.18,3.53,3.54v3.09h-2.87V390a1,1,0,0,0-1.1-1.12h-.6A1,1,0,0,0,431,390v12.12a1,1,0,0,0,1.13,1.12h.66a1,1,0,0,0,1.12-1.12V397.7Z" transform="translate(-278.28 -380.78)" fill="#fff"/><path d="M447.64,402.25c0,2.39-1.18,3.57-3.56,3.57h-1.43c-2.38,0-3.56-1.18-3.56-3.57V386.47H442v15.65a1,1,0,0,0,1.13,1.12h.46a1,1,0,0,0,1.1-1.12V386.47h2.93Z" transform="translate(-278.28 -380.78)" fill="#fff"/><path d="M453,405.65h-2.93V386.47H453Z" transform="translate(-278.28 -380.78)" fill="#fff"/><path d="M455.48,386.47h4.41c2.85,0,4.19,1.37,4.19,4.19v10.8c0,2.82-1.34,4.19-4.19,4.19h-4.41Zm2.93,16.6h1.07c1.15,0,1.67-.54,1.67-1.69V390.74c0-1.15-.52-1.7-1.67-1.7h-1.07Z" transform="translate(-278.28 -380.78)" fill="#fff"/><path d="M475.1,405.65h-2.9l-.39-3h-3l-.36,3H465.7l2.74-19.21h3.89Zm-6-5.62h2.38l-1.2-9.7Z" transform="translate(-278.28 -380.78)" fill="#fff"/><path d="M482.58,405.65l-3-12.91,0,3.37v9.54H477V386.47h3.43l2.74,11.84,0-3.21v-8.63h2.63v19.18Z" transform="translate(-278.28 -380.78)" fill="#fff"/><path d="M496.72,397.79v4.46c0,2.39-1.17,3.57-3.56,3.57h-1.45c-2.39,0-3.56-1.18-3.56-3.57V389.87c0-2.39,1.17-3.57,3.56-3.57h1.42c2.39,0,3.54,1.15,3.54,3.54v3.92h-2.88V390c0-.76-.35-1.12-1.09-1.12h-.5a1,1,0,0,0-1.12,1.12v12.12a1,1,0,0,0,1.12,1.12h.55a1,1,0,0,0,1.1-1.12v-4.33Z" transform="translate(-278.28 -380.78)" fill="#fff"/><path d="M505.58,386.47v2.66H502v5.42h3.45v2.66H502V403h3.64v2.66h-6.58V386.47Z" transform="translate(-278.28 -380.78)" fill="#fff"/><path d="M278.28,380.78v30.74H513.21V380.78Zm1.75,1.76H336v27.22H280Zm231.42,27.22H337.72V382.54H511.45Z" transform="translate(-278.28 -380.78)" fill="#fff"/></svg>