<svg id="Layer_1" data-name="Layer 1" xmlns="http://www.w3.org/2000/svg" viewBox="0 0 157.43 30.73"><title>rating_r_white</title><path d="M911.4,550.13c.15-.94.21-1.27,1.88-1.27,2.42,0,3.66,1.3,3.66,4.36,0,3.93-1.58,4.6-5.54,4.63v-7.72Zm13.29,17.41a1.38,1.38,0,0,1-1.24-.58l-6.09-8.63c1.64-.51,4.76-1.45,4.76-5.17,0-5.09-6.42-5.33-8.54-5.33h-9.75v.76c1.73.12,2.66.18,2.66,2.78v13.38c0,2.45-.6,2.54-2.66,2.79v.75h10.23v-.75c-2-.28-2.66-.37-2.66-2.79v-5.93h.82l6.26,9.47h6.21v-.75Z" transform="translate(-891.86 -542.78)" fill="#fff" fill-rule="evenodd"/><path d="M954.21,561.77v6.52h-2.94v-6.46c0-.85-.38-1.24-1.23-1.24h-1.32v7.7h-2.93V549.11h4.83c2.38,0,3.56,1.18,3.56,3.56v3.62c0,1.7-.6,2.52-1.67,3C953.71,559.58,954.21,560.32,954.21,561.77Zm-4.06-10.06h-1.43V558H950c.82,0,1.21-.38,1.21-1.17v-4.06A1,1,0,0,0,950.15,551.71Z" transform="translate(-891.86 -542.78)" fill="#fff"/><path d="M963.11,549.11v2.66h-3.59v5.42H963v2.66h-3.46v5.78h3.65v2.66h-6.58V549.11Z" transform="translate(-891.86 -542.78)" fill="#fff"/><path d="M973.69,561.77v3.13c0,2.38-1.18,3.56-3.56,3.56h-1.29c-2.38,0-3.53-1.18-3.53-3.54v-4h2.85v3.94c0,.74.35,1.1,1.12,1.1h.38c.77,0,1.13-.36,1.13-1.1v-2.63a1.69,1.69,0,0,0-.83-1.56l-3-2.16a3.54,3.54,0,0,1-1.69-3.32v-2.63c0-2.39,1.17-3.56,3.56-3.56h1.23c2.36,0,3.54,1.17,3.54,3.53V556h-2.88v-3.37a1,1,0,0,0-1.1-1.1h-.35a1,1,0,0,0-1.1,1.1v2.14a1.65,1.65,0,0,0,.82,1.56l3,2.17A3.48,3.48,0,0,1,973.69,561.77Z" transform="translate(-891.86 -542.78)" fill="#fff"/><path d="M977.78,568.29V551.77h-2.64v-2.66h8.2v2.66h-2.63v16.52Z" transform="translate(-891.86 -542.78)" fill="#fff"/><path d="M993.59,561.77v6.52h-2.93v-6.46a1.08,1.08,0,0,0-1.24-1.24h-1.31v7.7h-2.94V549.11H990c2.38,0,3.56,1.18,3.56,3.56v3.62c0,1.7-.6,2.52-1.67,3C993.09,559.58,993.59,560.32,993.59,561.77Zm-4.06-10.06h-1.42V558h1.31c.83,0,1.21-.38,1.21-1.17v-4.06A1,1,0,0,0,989.53,551.71Z" transform="translate(-891.86 -542.78)" fill="#fff"/><path d="M998.93,568.29H996V549.11h2.93Z" transform="translate(-891.86 -542.78)" fill="#fff"/><path d="M1009.92,560.43v4.47c0,2.38-1.18,3.56-3.56,3.56h-1.45c-2.39,0-3.57-1.18-3.57-3.56V552.51c0-2.39,1.18-3.56,3.57-3.56h1.42c2.39,0,3.54,1.15,3.54,3.53v3.92H1007v-3.75c0-.77-.36-1.13-1.1-1.13h-.49c-.77,0-1.12.36-1.12,1.13v12.11a1,1,0,0,0,1.12,1.12h.55c.74,0,1.09-.35,1.09-1.12v-4.33Z" transform="translate(-891.86 -542.78)" fill="#fff"/><path d="M1014.06,568.29V551.77h-2.63v-2.66h8.19v2.66H1017v16.52Z" transform="translate(-891.86 -542.78)" fill="#fff"/><path d="M1028,549.11v2.66h-3.59v5.42h3.46v2.66h-3.46v5.78H1028v2.66h-6.58V549.11Z" transform="translate(-891.86 -542.78)" fill="#fff"/><path d="M1030.29,549.11h4.41c2.85,0,4.19,1.37,4.19,4.19v10.8c0,2.82-1.34,4.19-4.19,4.19h-4.41Zm2.93,16.61h1.07c1.15,0,1.67-.55,1.67-1.7V553.38c0-1.15-.52-1.69-1.67-1.69h-1.07Z" transform="translate(-891.86 -542.78)" fill="#fff"/><path d="M891.86,542.78v30.74h157.43V542.78Zm1.76,1.76h42.32v27.22H893.62Zm153.91,27.22H937.7V544.54h109.83Z" transform="translate(-891.86 -542.78)" fill="#fff"/></svg>