<svg id="Layer_1" data-name="Layer 1" xmlns="http://www.w3.org/2000/svg" viewBox="0 0 59.45 30.73"><title>rating_pg_black_icon</title><path d="M766.83,558.8l.21,9.56c0,1.45.83,2.07,2.7,2.28,2.91.41,4.57-.21,4.77-1.87a3.2,3.2,0,0,0-2.07-3.32,1.88,1.88,0,0,1-1.25-1.25c-.21-.83.42-1.24,1.66-1.24h7.69c1.24,0,1.87.41,1.87,1a1.25,1.25,0,0,1-.63,1.25l-1.24.41c-.42.21-.63,1-.63,2.08l-.2,3.12c-.62,1-1.87,1.66-4,1.87l-6.44.62-5-.83c-2.29-1-3.53-3.12-3.53-6.44a66.46,66.46,0,0,1,.41-9.35c.63-1.87,2.49-3.11,5.82-3.73l4.77-.21,6,.62c1,.21,1.66,1,1.87,2.49l-.21,2.49c0,1.25-.62,1.87-2.08,1.87l-1.87-.2a2.63,2.63,0,0,1-1-1.87c-.41-2.29-1.66-3.12-3.73-2.91-2.7,0-3.95,1.25-3.95,3.53" transform="translate(-730.28 -547.78)" fill-rule="evenodd"/><path d="M753.33,558.38c0,3.12-.83,4.58-2.49,4.58l-2.5.2c-.82,0-1.24-.41-1.24-1v-8.3h-3.53l-1.87-.21c-3.74,0-4.57.83-2.7,2.28l1.45.42A2.15,2.15,0,0,1,741.7,558a69.45,69.45,0,0,1,0,9.76l-.62,1.87c-.21.62-.63,1-1.67,1-.82.21-1.24.62-1.24,1.25s.21.83.83.83h11c.83,0,1.25-.42,1.25-1a1,1,0,0,0-1-1c-1.87,0-2.9-.83-3.11-2.28a4.74,4.74,0,0,1,0-2.5,3.37,3.37,0,0,1,2.29-.62l5.39-.42c2.7-.2,4.16-1.86,4.16-4.77,0-2.29-.21-3.74-.62-4.36-.84-1.46-2.91-2.29-6-2.08l-5.19.21v2.49a4.58,4.58,0,0,1,2.91-.62c2.07,0,3.11.83,3.32,2.69" transform="translate(-730.28 -547.78)" fill-rule="evenodd"/><path d="M732,549.54H788v27.22H732Zm57.69,29V547.78H730.28v30.74Z" transform="translate(-730.28 -547.78)"/></svg>