<svg id="Layer_1" data-name="Layer 1" xmlns="http://www.w3.org/2000/svg" viewBox="0 0 46.42 30.73"><title>rating_g_white_icon</title><path d="M831.41,553.44l.22,9.57c0,1.44.79,2,2.66,2.24,3,.43,4.61-.22,4.82-1.88a3.24,3.24,0,0,0-2.08-3.31,1.63,1.63,0,0,1-1.23-1.22c-.21-.87.36-1.23,1.66-1.23h7.63c1.3,0,1.87.36,1.87,1s-.21,1.08-.57,1.23l-1.3.43c-.36.21-.58,1.08-.58,2.09l-.21,3.09c-.65,1.08-1.87,1.66-4,1.87l-6.41.65-5-.86c-2.23-1-3.53-3.1-3.53-6.41a65.77,65.77,0,0,1,.43-9.36c.65-1.87,2.52-3.1,5.84-3.74l4.75-.22,6,.65c1,.21,1.65,1,1.87,2.52l-.22,2.45c0,1.29-.65,1.87-2.09,1.87l-1.87-.22c-.43-.21-.79-.79-1-1.87-.43-2.23-1.65-3.1-3.74-2.88-2.74,0-4,1.22-4,3.53Z" transform="translate(-812.28 -542.31)" fill="#fff" fill-rule="evenodd"/><path d="M814,544.06h42.91v27.22H814Zm44.67,29V542.31H812.28V573Z" transform="translate(-812.28 -542.31)" fill="#fff"/></svg>