<svg id="Layer_1" data-name="Layer 1" xmlns="http://www.w3.org/2000/svg" viewBox="0 0 223.16 30.73"><title>rating_g_white</title><path d="M867.41,536.44l.22,9.57c0,1.44.79,2,2.66,2.24,3,.43,4.61-.22,4.82-1.88a3.24,3.24,0,0,0-2.08-3.31,1.63,1.63,0,0,1-1.23-1.22c-.21-.87.36-1.23,1.66-1.23h7.63c1.3,0,1.87.36,1.87,1s-.21,1.08-.57,1.23l-1.3.43c-.36.21-.58,1.08-.58,2.09l-.21,3.09c-.65,1.08-1.87,1.66-4,1.87l-6.41.65-5-.86c-2.23-1-3.53-3.1-3.53-6.41a65.77,65.77,0,0,1,.43-9.36c.65-1.87,2.52-3.1,5.84-3.74l4.75-.22,6,.65c1,.21,1.65,1,1.87,2.52l-.22,2.45c0,1.29-.65,1.87-2.09,1.87l-1.87-.22c-.43-.21-.79-.79-1-1.87-.43-2.23-1.65-3.1-3.74-2.88-2.74,0-4,1.22-4,3.53Z" transform="translate(-848.28 -525.31)" fill="#fff" fill-rule="evenodd"/><path d="M907,542.33v-2.52h4.38v7.07c0,2.38-1.17,3.56-3.56,3.56H906.3c-2.38,0-3.56-1.18-3.56-3.56V534.49c0-2.38,1.18-3.56,3.56-3.56h1.53c2.39,0,3.54,1.18,3.54,3.54v3.09h-2.88v-2.93c0-.77-.35-1.12-1.09-1.12h-.61a1,1,0,0,0-1.12,1.12v12.11a1,1,0,0,0,1.12,1.13h.66c.77,0,1.12-.36,1.12-1.13v-4.41Z" transform="translate(-848.28 -525.31)" fill="#fff"/><path d="M920.3,531.09v2.66h-3.59v5.43h3.46v2.66h-3.46v5.78h3.65v2.66h-6.58V531.09Z" transform="translate(-848.28 -525.31)" fill="#fff"/><path d="M928.2,550.28l-3-12.91,0,3.37v9.54h-2.63V531.09H926l2.74,11.84,0-3.2v-8.64h2.63v19.19Z" transform="translate(-848.28 -525.31)" fill="#fff"/><path d="M940.34,531.09v2.66h-3.59v5.43h3.45v2.66h-3.45v5.78h3.64v2.66h-6.57V531.09Z" transform="translate(-848.28 -525.31)" fill="#fff"/><path d="M951.05,543.76v6.52h-2.93v-6.47c0-.85-.38-1.23-1.23-1.23h-1.32v7.7h-2.93V531.09h4.82c2.39,0,3.57,1.18,3.57,3.57v3.61c0,1.7-.61,2.53-1.68,3C950.56,541.56,951.05,542.3,951.05,543.76Zm-4-10.06h-1.43V540h1.32a1,1,0,0,0,1.2-1.18v-4.06A1,1,0,0,0,947,533.7Z" transform="translate(-848.28 -525.31)" fill="#fff"/><path d="M962.29,550.28h-2.9l-.39-3h-3l-.36,3h-2.71l2.74-19.21h3.89Zm-6-5.62h2.38l-1.2-9.7Z" transform="translate(-848.28 -525.31)" fill="#fff"/><path d="M967.11,531.09v16.53h3.24v2.66h-6.17V531.09Z" transform="translate(-848.28 -525.31)" fill="#fff"/><path d="M985.39,550.28h-2.9l-.39-3h-3l-.35,3H976l2.74-19.21h3.9Zm-6-5.62h2.39l-1.21-9.7Z" transform="translate(-848.28 -525.31)" fill="#fff"/><path d="M995.67,546.88c0,2.38-1.18,3.56-3.56,3.56h-1.43c-2.38,0-3.56-1.18-3.56-3.56V531.09h2.93v15.65a1,1,0,0,0,1.13,1.13h.46c.74,0,1.1-.36,1.1-1.13V531.09h2.93Z" transform="translate(-848.28 -525.31)" fill="#fff"/><path d="M998.08,531.09h4.42c2.85,0,4.19,1.37,4.19,4.2v10.79c0,2.83-1.34,4.2-4.19,4.2h-4.42ZM1001,547.7h1.06c1.16,0,1.68-.55,1.68-1.7V535.37c0-1.15-.52-1.7-1.68-1.7H1001Z" transform="translate(-848.28 -525.31)" fill="#fff"/><path d="M1012,550.28h-2.93V531.09H1012Z" transform="translate(-848.28 -525.31)" fill="#fff"/><path d="M1021,531.09v2.66h-3.59v5.43h3.45v2.66h-3.45v5.78h3.65v2.66h-6.58V531.09Z" transform="translate(-848.28 -525.31)" fill="#fff"/><path d="M1028.92,550.28l-3-12.91,0,3.37v9.54h-2.64V531.09h3.43l2.74,11.84,0-3.2v-8.64h2.63v19.19Z" transform="translate(-848.28 -525.31)" fill="#fff"/><path d="M1043.06,542.41v4.47c0,2.38-1.18,3.56-3.57,3.56H1038c-2.38,0-3.56-1.18-3.56-3.56V534.49c0-2.38,1.18-3.56,3.56-3.56h1.43c2.38,0,3.53,1.15,3.53,3.54v3.91h-2.88v-3.75c0-.77-.35-1.12-1.09-1.12h-.5a1,1,0,0,0-1.12,1.12v12.11a1,1,0,0,0,1.12,1.13h.55c.74,0,1.1-.36,1.1-1.13v-4.33Z" transform="translate(-848.28 -525.31)" fill="#fff"/><path d="M1051.91,531.09v2.66h-3.59v5.43h3.45v2.66h-3.45v5.78H1052v2.66h-6.57V531.09Z" transform="translate(-848.28 -525.31)" fill="#fff"/><path d="M1062.49,543.76v3.12c0,2.38-1.18,3.56-3.57,3.56h-1.28c-2.39,0-3.54-1.18-3.54-3.53v-4.06H1057v3.95c0,.74.36,1.09,1.13,1.09h.38c.77,0,1.12-.35,1.12-1.09v-2.63a1.7,1.7,0,0,0-.82-1.57l-3-2.16a3.54,3.54,0,0,1-1.7-3.32v-2.63c0-2.38,1.18-3.56,3.56-3.56h1.24q3.52,0,3.53,3.54V538h-2.88v-3.38a1,1,0,0,0-1.09-1.09h-.36a1,1,0,0,0-1.09,1.09v2.14a1.64,1.64,0,0,0,.82,1.56l3,2.17A3.49,3.49,0,0,1,1062.49,543.76Z" transform="translate(-848.28 -525.31)" fill="#fff"/><path d="M848.28,525.31V556h223.16V525.31Zm1.75,1.75h42.91v27.22H850Zm219.65,27.22h-175V527.06h175Z" transform="translate(-848.28 -525.31)" fill="#fff"/></svg>