<svg id="Layer_1" data-name="Layer 1" xmlns="http://www.w3.org/2000/svg" viewBox="0 0 185.17 53.68"><title>triumph_logo_warp</title><path d="M241.12,234.09q-4.67,1.59-9.27,3.38V210.64q-2.53,1-5.06,2v-8.46q9.72-4,19.68-7.17v8.45c-1.79.57-3.57,1.15-5.35,1.76Z" transform="translate(-226.79 -185.83)" fill="#fff"/><path d="M273.91,225.4q-5.18,1-10.33,2.21l-4.69-11.41q-.08-.3-.24-.78c-.11-.32-.25-.71-.42-1.15l.07,2.31v12.34q-4.73,1.23-9.4,2.66V196.29q4.82-1.46,9.67-2.72c4.27-1.11,7.49-1,9.63.24,2.72,1.58,4.08,4.4,4.08,8.39a11.39,11.39,0,0,1-5.48,10Q270.36,218.74,273.91,225.4ZM258.34,210l.64-.17a4.8,4.8,0,0,0,2.73-1.94,5.8,5.8,0,0,0,1.09-3.47c0-2.63-1.37-3.63-4.12-2.92l-.34.09Z" transform="translate(-226.79 -185.83)" fill="#fff"/><path d="M286.71,223.3q-4.81.66-9.62,1.51V189.53q4.8-.85,9.62-1.51Z" transform="translate(-226.79 -185.83)" fill="#fff"/><path d="M306.36,186.15q4.84-.26,9.71-.32v24.95a11.16,11.16,0,0,1-1,5.09,10.41,10.41,0,0,1-3.26,3.76,13.57,13.57,0,0,1-7.48,2.54,13.75,13.75,0,0,1-8.34-1.76c-2.85-1.77-4.27-4.89-4.27-9.41V187.39q4.83-.55,9.68-.92v22.76a6.55,6.55,0,0,0,.57,3.23,1.92,1.92,0,0,0,1.92.83,2.2,2.2,0,0,0,1.93-1,7.37,7.37,0,0,0,.54-3.34Z" transform="translate(-226.79 -185.83)" fill="#fff"/><path d="M358,224.19q-5-.81-10.09-1.41l-.72-16.17-.3-6.46c-.1,1.22-.23,2.38-.37,3.49s-.31,2.17-.51,3.2q-1.51,7.69-3,15.4-3.94-.39-7.9-.64l-2.61-15.9q-.23-1.38-.63-4.74,0-.51-.21-2.07c-.07,2.17-.15,4.33-.23,6.5q-.43,8-.86,16c-3.45-.16-6.89-.25-10.34-.26q2.08-17.64,4.19-35.23,6,.12,12.08.55,1,6,2,12,.25,1.47.45,3.21t.36,3.75a53,53,0,0,1,.84-5.94l2.46-12.55q6,.59,11.93,1.45Q356.28,206.28,358,224.19Z" transform="translate(-226.79 -185.83)" fill="#fff"/><path d="M371.84,226.85q-4.77-1.07-9.57-1.93V189.64q4.65.84,9.28,1.86c4.6,1,8,2.84,10.21,5.3a14.93,14.93,0,0,1,3.9,10.28c0,4.29-1.38,7.07-4.15,8.43-1.89.92-4.61.92-8.18.11l-1.49-.34Zm0-19.5.44.12a3.15,3.15,0,0,0,2.76-.42,3.21,3.21,0,0,0,1-2.67,5.37,5.37,0,0,0-1-3.21,4.26,4.26,0,0,0-2.56-1.76l-.67-.15Z" transform="translate(-226.79 -185.83)" fill="#fff"/><path d="M412,239.5q-4.57-1.89-9.21-3.59V221.72q-2.21-.81-4.43-1.58v14.19q-4.65-1.61-9.36-3V196q4.71,1.41,9.36,3v12.47c1.48.51,3,1,4.43,1.58V200.62q4.63,1.71,9.21,3.6Z" transform="translate(-226.79 -185.83)" fill="#fff"/></svg>