<svg id="Layer_1" data-name="Layer 1" xmlns="http://www.w3.org/2000/svg" viewBox="0 0 81 54"><title>genre_business</title><path d="M175.9,215.21v-30h11.61c2.16,0,4.73.31,6.57,2.33a8.11,8.11,0,0,1,1.85,5.63,7.8,7.8,0,0,1-.86,3.69,4.73,4.73,0,0,1-2.43,2.34,7.48,7.48,0,0,1,4.1,1.8,7.56,7.56,0,0,1,2,5.49,8.15,8.15,0,0,1-2.2,5.89c-1.62,1.67-4.46,2.84-8.15,2.84ZM183.69,197h1.44a4.1,4.1,0,0,0,3-.95,2.91,2.91,0,0,0,.72-2,3.07,3.07,0,0,0-.72-2,4.12,4.12,0,0,0-3-.9h-1.44Zm0,12.1h1.75c2.16,0,4-.22,4.82-1.21a2.93,2.93,0,0,0,.63-1.94,3.06,3.06,0,0,0-.77-2.16c-.94-.94-2.88-1-4.81-1h-1.62Z" transform="translate(-159.77 -173.54)"/><path d="M210.24,195.09v11.25a3.85,3.85,0,0,0,1.08,2.93,3.71,3.71,0,0,0,2.52.76,3.37,3.37,0,0,0,2.56-.85,3.75,3.75,0,0,0,1-2.84V195.09h7.2v12.56a6.92,6.92,0,0,1-1.94,5.4c-2.47,2.56-5.94,2.83-8.68,2.83-3,0-6.71-.31-9.09-2.88a7.23,7.23,0,0,1-1.89-5.35V195.09Z" transform="translate(-159.77 -173.54)"/><path d="M240.77,227.54h-81v-54h81Zm-79-2h77v-50h-77Z" transform="translate(-159.77 -173.54)"/></svg>