<svg id="Layer_1" data-name="Layer 1" xmlns="http://www.w3.org/2000/svg" viewBox="0 0 81 54"><title>genre_comedy</title><path d="M197.68,214.65a18.57,18.57,0,0,1-6.75,1.48,16.33,16.33,0,0,1-11.61-4.5,15.75,15.75,0,0,1-4.54-10.93,16.09,16.09,0,0,1,4.54-11.07A15.93,15.93,0,0,1,190.66,185a18.51,18.51,0,0,1,7,1.53v9.31a8.36,8.36,0,0,0-6.79-3.28,7.58,7.58,0,0,0-5.4,2,8.36,8.36,0,0,0-2.61,6.16,8.25,8.25,0,0,0,2.43,5.85,8.34,8.34,0,0,0,5.58,2.07,8.78,8.78,0,0,0,6.79-3.15Z" transform="translate(-159.55 -173.54)"/><path d="M222.21,212.8a13.77,13.77,0,0,1-18,0,10.38,10.38,0,0,1,0-14.8,12.57,12.57,0,0,1,9-3.33,12.7,12.7,0,0,1,9,3.33,10.38,10.38,0,0,1,0,14.8ZM210,202.09a4.47,4.47,0,0,0,0,6.48,4.52,4.52,0,0,0,6.44,0,4.41,4.41,0,0,0,1.39-3.19,4.89,4.89,0,0,0-1.39-3.29,4.64,4.64,0,0,0-6.44,0Z" transform="translate(-159.55 -173.54)"/><path d="M240.55,227.54h-81v-54h81Zm-79-2h77v-50h-77Z" transform="translate(-159.55 -173.54)"/></svg>