<svg id="Layer_1" data-name="Layer 1" xmlns="http://www.w3.org/2000/svg" viewBox="0 0 81 54"><title>genre_kids</title><path d="M181.89,199l9.54-12.37h9.63l-11.92,14.22,13,15.79H192.06l-10.17-13v13h-7.78v-30h7.78Z" transform="translate(-159.57 -173.54)"/><path d="M226,216.6h-7.2v-2.2a7.39,7.39,0,0,1-6.08,2.88,9.64,9.64,0,0,1-7.06-2.79,11.42,11.42,0,0,1,0-16,10.29,10.29,0,0,1,7.11-2.7,8,8,0,0,1,6,2.61V183.8H226Zm-8.51-6.66a4.79,4.79,0,0,0,1.53-3.42,5.29,5.29,0,0,0-1.35-3.24,4.61,4.61,0,0,0-6.48,0,4.94,4.94,0,0,0-1.39,3.42,4.58,4.58,0,0,0,1.39,3.15,4.47,4.47,0,0,0,3.2,1.35A4.87,4.87,0,0,0,217.53,209.94Z" transform="translate(-159.57 -173.54)"/><path d="M240.57,227.54h-81v-54h81Zm-79-2h77v-50h-77Z" transform="translate(-159.57 -173.54)"/></svg>